/* XPM */
static xpm_string_t colon_xpm[] = {
"11 20 14 1",
" 	c None",
".	c #000000",
"+	c #020202",
"@	c #1C1C1C",
"#	c #272727",
"$	c #BABABA",
"%	c #F4F4F4",
"&	c #C3C3C3",
"*	c #FFFFFF",
"=	c #ADADAD",
"-	c #E3E3E3",
";	c #010101",
">	c #030303",
",	c #040404",
"           ",
"  .......  ",
"  +@###@+  ",
"  +$%%%$+  ",
"  +&***&+  ",
"  +&***&+  ",
"  +=---=+  ",
"  ;>,,,>+  ",
"   .....   ",
"           ",
"           ",
"   .....   ",
"  ;>,,,>+  ",
"  +=---=+  ",
"  +&***&+  ",
"  +&***&+  ",
"  +$%%%$+  ",
"  +@###@+  ",
"  .......  ",
"           "};
