/* XPM */
static xpm_string_t four_xpm[] = {
"31 40 22 1",
" 	c None",
".	c #000000",
"+	c #010101",
"@	c #0A0A0A",
"#	c #808080",
"$	c #919191",
"%	c #575757",
"&	c #0B0B0B",
"*	c #191919",
"=	c #E2E2E2",
"-	c #FFFFFF",
";	c #FEFEFE",
">	c #9C9C9C",
",	c #1A1A1A",
"'	c #9D9D9D",
")	c #9E9E9E",
"!	c #1C1C1C",
"~	c #EEEEEE",
"{	c #E4E4E4",
"]	c #161616",
"^	c #CBCBCB",
"/	c #181818",
"                               ",
"                               ",
"   .......+.       .+.......   ",
"  .@#$$$$$%+       +%$$$$$#&.  ",
"  .*=----;>+       +>;----=,.  ",
"  .*=-----'+       +'-----=,.  ",
"  .*=-----'+       +'-----=,.  ",
"  .*=-----'+       +'-----=,.  ",
"  .*=-----'+       +'-----=,.  ",
"  .*=-----'+       +'-----=,.  ",
"  .*=-----'+       +'-----=,.  ",
"  .*=-----'+       +'-----=,.  ",
"  .*=-----'+       +'-----=,.  ",
"  .*=-----'+       +'-----=,.  ",
"  .*=-----'+       +'-----=,.  ",
"  .*=-----'+.......+'-----=,.  ",
"  .*=-----)!!!!!!!!!)-----=,.  ",
"  .*=-----~{{{{{{{{{~-----=,.  ",
"  .*=---------------------=,.  ",
"  .*=---------------------=,.  ",
"  .*=---------------------=,.  ",
"  .*=---------------------=,.  ",
"  .]^{{{{{{{{{{{{{{{~-----=,.  ",
"   +/!!!!!!!!!!!!!!!)-----=,.  ",
"    ...............+'-----=,.  ",
"                   +'-----=,.  ",
"                   +'-----=,.  ",
"                   +'-----=,.  ",
"                   +'-----=,.  ",
"                   +'-----=,.  ",
"                   +'-----=,.  ",
"                   +'-----=,.  ",
"                   +'-----=,.  ",
"                   +'-----=,.  ",
"                   +'-----=,.  ",
"                   +>;----=,.  ",
"                   +%$$$$$#&.  ",
"                   .+.......   ",
"                               ",
"                               "};
