/* XPM */
static xpm_string_t one_xpm[] = {
"14 40 9 1",
" 	c None",
".	c #000000",
"+	c #1E1E1E",
"@	c #8A8A8A",
"#	c #919191",
"$	c #3B3B3B",
"%	c #F2F2F2",
"&	c #FFFFFF",
"*	c #F3F3F3",
"              ",
"              ",
"   ........   ",
"  .+@####@+.  ",
"  .$%&&&&%$.  ",
"  .$*&&&&*$.  ",
"  .$*&&&&*$.  ",
"  .$*&&&&*$.  ",
"  .$*&&&&*$.  ",
"  .$*&&&&*$.  ",
"  .$*&&&&*$.  ",
"  .$*&&&&*$.  ",
"  .$*&&&&*$.  ",
"  .$*&&&&*$.  ",
"  .$*&&&&*$.  ",
"  .$*&&&&*$.  ",
"  .$*&&&&*$.  ",
"  .$*&&&&*$.  ",
"  .$*&&&&*$.  ",
"  .$*&&&&*$.  ",
"  .$*&&&&*$.  ",
"  .$*&&&&*$.  ",
"  .$*&&&&*$.  ",
"  .$*&&&&*$.  ",
"  .$*&&&&*$.  ",
"  .$*&&&&*$.  ",
"  .$*&&&&*$.  ",
"  .$*&&&&*$.  ",
"  .$*&&&&*$.  ",
"  .$*&&&&*$.  ",
"  .$*&&&&*$.  ",
"  .$*&&&&*$.  ",
"  .$*&&&&*$.  ",
"  .$*&&&&*$.  ",
"  .$*&&&&*$.  ",
"  .$%&&&&%$.  ",
"  .+@####@+.  ",
"   ........   ",
"              ",
"              "};
