/* XPM */
static xpm_string_t slash_xpm[] = {
"27 40 107 2",
"  	c None",
". 	c #000000",
"+ 	c #010101",
"@ 	c #020202",
"# 	c #515151",
"$ 	c #BCBCBC",
"% 	c #C5C5C5",
"& 	c #B4B4B4",
"* 	c #353535",
"= 	c #030303",
"- 	c #9A9A9A",
"; 	c #FEFEFE",
"> 	c #FFFFFF",
", 	c #CBCBCB",
"' 	c #1A1A1A",
") 	c #1D1D1D",
"! 	c #D5D5D5",
"~ 	c #FDFDFD",
"{ 	c #8D8D8D",
"] 	c #656565",
"^ 	c #F4F4F4",
"/ 	c #E9E9E9",
"( 	c #4D4D4D",
"_ 	c #A8A8A8",
": 	c #C3C3C3",
"< 	c #0C0C0C",
"[ 	c #313131",
"} 	c #DADADA",
"| 	c #FBFBFB",
"1 	c #868686",
"2 	c #6C6C6C",
"3 	c #F8F8F8",
"4 	c #E6E6E6",
"5 	c #383838",
"6 	c #0A0A0A",
"7 	c #B7B7B7",
"8 	c #B5B5B5",
"9 	c #0B0B0B",
"0 	c #E5E5E5",
"a 	c #F7F7F7",
"b 	c #777777",
"c 	c #808080",
"d 	c #F9F9F9",
"e 	c #DFDFDF",
"f 	c #2D2D2D",
"g 	c #111111",
"h 	c #BEBEBE",
"i 	c #ACACAC",
"j 	c #070707",
"k 	c #414141",
"l 	c #EAEAEA",
"m 	c #626262",
"n 	c #8E8E8E",
"o 	c #D4D4D4",
"p 	c #282828",
"q 	c #121212",
"r 	c #CACACA",
"s 	c #A0A0A0",
"t 	c #585858",
"u 	c #EEEEEE",
"v 	c #F2F2F2",
"w 	c #5B5B5B",
"x 	c #979797",
"y 	c #CECECE",
"z 	c #181818",
"A 	c #202020",
"B 	c #8F8F8F",
"C 	c #616161",
"D 	c #040404",
"E 	c #A7A7A7",
"F 	c #C2C2C2",
"G 	c #0D0D0D",
"H 	c #2F2F2F",
"I 	c #FAFAFA",
"J 	c #878787",
"K 	c #6B6B6B",
"L 	c #E8E8E8",
"M 	c #B3B3B3",
"N 	c #333333",
"O 	c #767676",
"P 	c #828282",
"Q 	c #323232",
"R 	c #0E0E0E",
"S 	c #BDBDBD",
"T 	c #AEAEAE",
"U 	c #424242",
"V 	c #F6F6F6",
"W 	c #646464",
"X 	c #8B8B8B",
"Y 	c #FCFCFC",
"Z 	c #D6D6D6",
"` 	c #292929",
" .	c #101010",
"..	c #C9C9C9",
"+.	c #9E9E9E",
"@.	c #565656",
"#.	c #EDEDED",
"$.	c #F1F1F1",
"%.	c #5E5E5E",
"&.	c #D1D1D1",
"*.	c #171717",
"=.	c #222222",
"-.	c #929292",
";.	c #3B3B3B",
">.	c #BABABA",
",.	c #B9B9B9",
"'.	c #484848",
"                                                      ",
"                                                      ",
"                            . + + + + + + + + .       ",
"                          . @ @ @ @ @ @ @ @ @ @ .     ",
"                          + @ # $ % % % % & * @ .     ",
"                        . @ = - ; > > > > , ' @ .     ",
"                        + @ ) ! > > > > ~ { @ @ .     ",
"                        + @ ] ^ > > > > / ( @ +       ",
"                      . @ = _ ; > > > > : < @ .       ",
"                      + @ [ } > > > > | 1 @ @ .       ",
"                    . + @ 2 3 > > > > 4 5 @ +         ",
"                    . @ 6 7 ; > > > > 8 9 @ .         ",
"                    + @ 5 0 > > > > a b @ + .         ",
"                  . + @ c d > > > > e f @ +           ",
"                  . @ g h > > > > ; i j @ .           ",
"                  + @ k l > > > > a m @ +             ",
"                . @ = n | > > > > o p @ +             ",
"                . @ q r > > > > ~ s = @ .             ",
"                + @ t u > > > > v w @ +               ",
"              . @ @ x ; > > > > y z @ .               ",
"              + @ A o > > > > ~ B @ @ .               ",
"              + @ C ^ > > > > l ( @ +                 ",
"            . @ D E ; > > > > F G @ .                 ",
"            + @ H } > > > > I J @ @ .                 ",
"          . + @ K 3 > > > > L 5 @ +                   ",
"          . @ 9 M ; > > > > 7 G @ .                   ",
"          + @ N 0 > > > > 3 O @ + .                   ",
"        . @ @ P d > > > > e Q @ +                     ",
"        . @ R S > > > > ; T j @ .                     ",
"        + @ U l > > > > V W @ +                       ",
"      . @ @ X Y > > > > Z ` @ +                       ",
"      . @  ...> > > > ; +.@ @ .                       ",
"      + @ @.#.> > > > $.%.@ +                         ",
"    . @ @ x ~ > > > > &.*.@ +                         ",
"    . @ =.&.> > > > ~ -.= @ .                         ",
"    . @ ;.>.% % % % ,.'.@ +                           ",
"    . @ @ @ @ @ @ @ @ @ @ .                           ",
"      . + + + + + + + + .                             ",
"                                                      ",
"                                                      "};
