/* XPM */
static xpm_string_t three_xpm[] = {
"31 40 28 1",
" 	c None",
".	c #000000",
"+	c #272727",
"@	c #848484",
"#	c #919191",
"$	c #808080",
"%	c #0B0B0B",
"&	c #010101",
"*	c #4A4A4A",
"=	c #E9E9E9",
"-	c #FFFFFF",
";	c #E2E2E2",
">	c #1A1A1A",
",	c #EAEAEA",
"'	c #282828",
")	c #898989",
"!	c #969696",
"~	c #C2C2C2",
"{	c #9D9D9D",
"]	c #040404",
"^	c #191919",
"/	c #1C1C1C",
"(	c #9E9E9E",
"_	c #424242",
":	c #D1D1D1",
"<	c #E4E4E4",
"[	c #EEEEEE",
"}	c #414141",
"                               ",
"                               ",
"   .........................   ",
"  .+@#####################$%.  ",
"  &*=---------------------;>.  ",
"  &*,---------------------;>.  ",
"  &*,---------------------;>.  ",
"  &*,---------------------;>.  ",
"  &*=---------------------;>.  ",
"  .')!!!!!!!!!!!!!!!~-----;>.  ",
"   .&&&&&&&&&&&&&&&&{-----;>.  ",
"                   &{-----;>.  ",
"                   &{-----;>.  ",
"                   &{-----;>.  ",
"                   &{-----;>.  ",
"    ...............&{-----;>.  ",
"  .]^///////////////(-----;>.  ",
"  &_:<<<<<<<<<<<<<<<[-----;>.  ",
"  &*,---------------------;>.  ",
"  &*,---------------------;>.  ",
"  &*,---------------------;>.  ",
"  &*,---------------------;>.  ",
"  &}:<<<<<<<<<<<<<<<[-----;>.  ",
"  .]^///////////////(-----;>.  ",
"    ...............&{-----;>.  ",
"                   &{-----;>.  ",
"                   &{-----;>.  ",
"                   &{-----;>.  ",
"                   &{-----;>.  ",
"   .&&&&&&&&&&&&&&&&{-----;>.  ",
"  .')!!!!!!!!!!!!!!!~-----;>.  ",
"  &*=---------------------;>.  ",
"  &*,---------------------;>.  ",
"  &*,---------------------;>.  ",
"  &*,---------------------;>.  ",
"  &*=---------------------;>.  ",
"  .+@#####################$%.  ",
"   .........................   ",
"                               ",
"                               "};
