/* XPM */
static xpm_string_t two_xpm[] = {
"31 40 22 1",
" 	c None",
".	c #000000",
"+	c #0A0A0A",
"@	c #808080",
"#	c #919191",
"$	c #0B0B0B",
"%	c #191919",
"&	c #E2E2E2",
"*	c #FFFFFF",
"=	c #1A1A1A",
"-	c #858585",
";	c #969696",
">	c #C2C2C2",
",	c #010101",
"'	c #9D9D9D",
")	c #181818",
"!	c #1C1C1C",
"~	c #9E9E9E",
"{	c #161616",
"]	c #CBCBCB",
"^	c #E4E4E4",
"/	c #EEEEEE",
"                               ",
"                               ",
"   .........................   ",
"  .+@#####################@$.  ",
"  .%&*********************&=.  ",
"  .%&*********************&=.  ",
"  .%&*********************&=.  ",
"  .%&*********************&=.  ",
"  .%&*********************&=.  ",
"  .$-;;;;;;;;;;;;;;;>*****&=.  ",
"   .,,,,,,,,,,,,,,,,'*****&=.  ",
"                   ,'*****&=.  ",
"                   ,'*****&=.  ",
"                   ,'*****&=.  ",
"                   ,'*****&=.  ",
"    ...............,'*****&=.  ",
"   ,)!!!!!!!!!!!!!!!~*****&=.  ",
"  .{]^^^^^^^^^^^^^^^/*****&=.  ",
"  .%&*********************&=.  ",
"  .%&*********************&=.  ",
"  .%&*********************&=.  ",
"  .%&*********************&=.  ",
"  .%&*****/^^^^^^^^^^^^^^^]{.  ",
"  .%&*****~!!!!!!!!!!!!!!!),   ",
"  .%&*****',...............    ",
"  .%&*****',                   ",
"  .%&*****',                   ",
"  .%&*****',                   ",
"  .%&*****',                   ",
"  .%&*****',,,,,,,,,,,,,,,,.   ",
"  .%&*****>;;;;;;;;;;;;;;;-$.  ",
"  .%&*********************&=.  ",
"  .%&*********************&=.  ",
"  .%&*********************&=.  ",
"  .%&*********************&=.  ",
"  .%&*********************&=.  ",
"  .+@#####################@$.  ",
"   .........................   ",
"                               ",
"                               "};
