/* XPM */
static xpm_string_t bullet_xpm[] = {
"15 20 47 1",
" 	c None",
".	c #92450C",
"+	c #B7570F",
"@	c #7D3B0A",
"#	c #97500B",
"$	c #F7B70E",
"%	c #FFD23A",
"&	c #F3AD0F",
"*	c #83450A",
"=	c #582807",
"-	c #ED9F0F",
";	c #FEDA5A",
">	c #FFF9E4",
",	c #FFD74F",
"'	c #E89210",
")	c #3F1C05",
"!	c #FEF3CB",
"~	c #FFFFFF",
"{	c #FFEDAE",
"]	c #FEEDAE",
"^	c #542607",
"/	c #E99D0F",
"(	c #FEECAE",
"_	c #E3900F",
":	c #3C1B05",
"<	c #B0690C",
"[	c #FAD36D",
"}	c #FFFAE9",
"|	c #F7C95F",
"1	c #9F5D0B",
"2	c #7E390A",
"3	c #F5B20E",
"4	c #FFD74D",
"5	c #F0A60F",
"6	c #662E08",
"7	c #6A3008",
"8	c #D06810",
"9	c #F6B50E",
"0	c #D46811",
"a	c #622C08",
"b	c #9F480D",
"c	c #D15F11",
"d	c #873D0B",
"e	c #B5520F",
"f	c #472005",
"g	c #92420C",
"h	c #220F02",
"               ",
"               ",
"      .+@      ",
"     #$%&*     ",
"    =-;>,')    ",
"    =-!~{')    ",
"    =-!~]')    ",
"    =-!~{')    ",
"    ^/!~(_:    ",
"     <[}|1     ",
"     23456     ",
"     7890a     ",
"      bcd      ",
"      ^ef      ",
"       g       ",
"       h       ",
"               ",
"               ",
"               ",
"               "};
