/* XPM */
static xpm_string_t cursor_xpm[] = {
"48 48 59 1",
" 	c None",
".	c #212121",
"+	c #222222",
"@	c #878787",
"#	c #E0E0E0",
"$	c #929292",
"%	c #232323",
"&	c #9D9D9D",
"*	c #242424",
"=	c #A6A6A6",
"-	c #272727",
";	c #B0B0B0",
">	c #2A2A2A",
",	c #B8B8B8",
"'	c #2F2F2F",
")	c #202020",
"!	c #C0C0C0",
"~	c #343434",
"{	c #C7C7C7",
"]	c #3A3A3A",
"^	c #CDCDCD",
"/	c #414141",
"(	c #D1D1D1",
"_	c #494949",
":	c #D7D7D7",
"<	c #515151",
"[	c #D9D9D9",
"}	c #5B5B5B",
"|	c #DDDDDD",
"1	c #646464",
"2	c #DEDEDE",
"3	c #6F6F6F",
"4	c #DFDFDF",
"5	c #7A7A7A",
"6	c #919191",
"7	c #818181",
"8	c #5D5D5D",
"9	c #4C4C4C",
"0	c #3B3B3B",
"a	c #9F9F9F",
"b	c #505050",
"c	c #B5B5B5",
"d	c #2D2D2D",
"e	c #A7A7A7",
"f	c #282828",
"g	c #565656",
"h	c #999999",
"i	c #828282",
"j	c #8A8A8A",
"k	c #6D6D6D",
"l	c #737373",
"m	c #898989",
"n	c #C6C6C6",
"o	c #373737",
"p	c #626262",
"q	c #DCDCDC",
"r	c #7F7F7F",
"s	c #868686",
"t	c #353535",
"                                                ",
"                                                ",
"                                                ",
"                                                ",
"                                                ",
"                                                ",
"                                                ",
"                                                ",
"                                                ",
"                                                ",
"                 ..                             ",
"                ...+                            ",
"                ..@++                           ",
"                ..#$%.                          ",
"                ..##&*+                         ",
"                ..###=-.                        ",
"                ..####;>.                       ",
"                ..#####,'.)                     ",
"                ..######!~.)                    ",
"                ..#######{]..                   ",
"                ..########^/..                  ",
"                ..#########(_.)                 ",
"                ..##########:<.+                ",
"                ..###########[}.+               ",
"                ..############|1..              ",
"                ..#############23..             ",
"                ..##############45.)            ",
"                ..########,673890>.)            ",
"                ..#####2##a.......)             ",
"                ..####!b2#20..                  ",
"                ..###cd.=##6..                  ",
"                ..##ef..g##[')                  ",
"                ..#h%.).+!##i..                 ",
"                ..j+.) ..k##(f+                 ",
"                ....    .f(##l.                 ",
"                 .)     ..m##n%)                ",
"                         .o|##p.                ",
"                         ).a#qr..               ",
"                         .._st..                ",
"                          )....                 ",
"                           .)                   ",
"                                                ",
"                                                ",
"                                                ",
"                                                ",
"                                                ",
"                                                ",
"                                                "};
