/* XPM */
static xpm_string_t enemy_bullet_xpm[] = {
"15 20 47 1",
" 	c None",
".	c #220F02",
"+	c #92420C",
"@	c #542607",
"#	c #B5520F",
"$	c #472005",
"%	c #9F480D",
"&	c #D15F11",
"*	c #873D0B",
"=	c #6A3008",
"-	c #D06810",
";	c #F6B50E",
">	c #D46811",
",	c #622C08",
"'	c #7E390A",
")	c #F5B20E",
"!	c #FFD74D",
"~	c #F0A60F",
"{	c #662E08",
"]	c #B0690C",
"^	c #FAD36D",
"/	c #FFFAE9",
"(	c #F7C95F",
"_	c #9F5D0B",
":	c #E99D0F",
"<	c #FEF3CB",
"[	c #FFFFFF",
"}	c #FEECAE",
"|	c #E3900F",
"1	c #3C1B05",
"2	c #582807",
"3	c #ED9F0F",
"4	c #FFEDAE",
"5	c #E89210",
"6	c #3F1C05",
"7	c #FEEDAE",
"8	c #FEDA5A",
"9	c #FFF9E4",
"0	c #FFD74F",
"a	c #97500B",
"b	c #F7B70E",
"c	c #FFD23A",
"d	c #F3AD0F",
"e	c #83450A",
"f	c #92450C",
"g	c #B7570F",
"h	c #7D3B0A",
"               ",
"               ",
"               ",
"               ",
"       .       ",
"       +       ",
"      @#$      ",
"      %&*      ",
"     =-;>,     ",
"     ')!~{     ",
"     ]^/(_     ",
"    @:<[}|1    ",
"    23<[456    ",
"    23<[756    ",
"    23<[456    ",
"    2389056    ",
"     abcde     ",
"      fgh      ",
"               ",
"               "};
