/* XPM */
static xpm_string_t exp1_xpm[] = {
"96 96 2 1",
" 	g None",
".	g #FFFFFF",
"                                                                                                ",
"                                                                                                ",
"                                                                                                ",
"                                                                                                ",
"                                                                                                ",
"                                                                                                ",
"                                                                                                ",
"                                                                                                ",
"                                                                                                ",
"                                                                                                ",
"                                                                                                ",
"                                                                                                ",
"                                                                                                ",
"                                                                                                ",
"                                                                                                ",
"                                                                                                ",
"                                                                                                ",
"                                                                                                ",
"                                                                                                ",
"                                                                                                ",
"                                                                                                ",
"                                                                                                ",
"                                                                                                ",
"                                                                                                ",
"                                                                                                ",
"                                                                                                ",
"                                                                                                ",
"                                              ..........                                        ",
"                                          ..................                                    ",
"                                        ......................                                  ",
"                                      ..........................                                ",
"                                     ............................                               ",
"                                   ................................                             ",
"                                  ..................................                            ",
"                                 ....................................                           ",
"                                ......................................                          ",
"                               ........................................                         ",
"                               ........................................                         ",
"                              ..........................................                        ",
"                             ............................................                       ",
"                             ............................................                       ",
"                            ..............................................                      ",
"                            ..............................................                      ",
"                           ................................................                     ",
"                           ................................................                     ",
"                           ................................................                     ",
"                           ................................................                     ",
"                          ..................................................                    ",
"                          ..................................................                    ",
"                          ..................................................                    ",
"                          ..................................................                    ",
"                          ..................................................                    ",
"                          ..................................................                    ",
"                          ..................................................                    ",
"                          ..................................................                    ",
"                          ..................................................                    ",
"                          ..................................................                    ",
"                           ................................................                     ",
"                           ................................................                     ",
"                           ................................................                     ",
"                           ................................................                     ",
"                            ..............................................                      ",
"                            ..............................................                      ",
"                             ............................................                       ",
"                             ............................................                       ",
"                              ..........................................                        ",
"                               ........................................                         ",
"                               ........................................                         ",
"                                ......................................                          ",
"                                 ....................................                           ",
"                                  ..................................                            ",
"                                   ................................                             ",
"                                     ............................                               ",
"                                      ..........................                                ",
"                                        ......................                                  ",
"                                          ..................                                    ",
"                                              ..........                                        ",
"                                                                                                ",
"                                                                                                ",
"                                                                                                ",
"                                                                                                ",
"                                                                                                ",
"                                                                                                ",
"                                                                                                ",
"                                                                                                ",
"                                                                                                ",
"                                                                                                ",
"                                                                                                ",
"                                                                                                ",
"                                                                                                ",
"                                                                                                ",
"                                                                                                ",
"                                                                                                ",
"                                                                                                ",
"                                                                                                ",
"                                                                                                "};
