/* XPM */
static xpm_string_t exp2_xpm[] = {
"96 96 5 1",
" 	c None",
".	c #D18023",
"+	c #FF9519",
"@	c #FFF423",
"#	c #FFFFFF",
"                                                                                                ",
"                                                                                                ",
"                                                                                                ",
"                                                                                                ",
"                                                                                                ",
"                                                                                                ",
"                                                                                                ",
"                                                                                                ",
"                                                                                                ",
"                                                                                                ",
"                                                                                                ",
"                                                                                                ",
"                                                                                                ",
"                                                                                                ",
"                                                                                                ",
"                                                                                                ",
"                                                                                                ",
"                                                                                                ",
"                                                 ......                                         ",
"                                               ..........                                       ",
"                                          ++++++++++.......                                     ",
"                                   ...+@@@@@++++++++++++....                                    ",
"                                 ...++@@@@@@@++@++@@++++++...                                   ",
"                               ...+++######@@@+++@@@@+@+++++..                                  ",
"                              ...+@##########@@@@@@@@++++++++...                                ",
"                              .++##############@@##@++@@@@@++++..                               ",
"                             .+@################@##@@@@####@@+++...                             ",
"                             +@@################@@@@@########@+++...                            ",
"                            +@@##################@@@@########@@+++...                           ",
"                          .+@@@####################@##########@++++...                          ",
"                         ..@@@#####################@##########@@+++...                          ",
"                        ..+@@@#####################@##########@@+@++...                         ",
"                       ..+###@####################@@##########@@+++++...                        ",
"                       ..####################################@@@+++++...                        ",
"                      ..+####################################@@@++++++...                       ",
"                     ...+############################@@####@@@@+++++++...                       ",
"                     ..+@@###@@##################@@###@@@@@@@@@+@@+++++..                       ",
"                    ...+@@@@@####################@#######@@@@@+@@@@++++..                       ",
"                    ...+@@@#####################@@########@@@++@@@@++++...                      ",
"                    ...+@@######################@@########@+++++@@+++++...                      ",
"                    ..++@@#####################@@@@###@##@@+@@@@++++++++..                      ",
"                   ...++@######################@@#####@@@@@@@@@@@++@++++..                      ",
"                   ...++@#######################@#######@@@@##@@@@++++++...                     ",
"                   ...+@@############@@#########@@@#####@@@@##@@@@++++++....                    ",
"                   ...+@@############@@@########@@@####@@@@@@@@@@@+@@+++....                    ",
"                   ...@@@@##########@@@@@@@@###@@########@@@@@@@@@+@@+++.....                   ",
"                   ...@##@##############@@@@@@@@##########+@@@@@@++++++++....                   ",
"                   ...@##@@##############@@###@@##########@@@#@@++++@####+....                  ",
"                   ...+@@@@@@####@@######@#################@@@++++@########+..                  ",
"                   ...++@@@@@@@@@@@######@#################@@@@++@@########@+.                  ",
"                    ...++++@@@@@@@@@####@@#################@@@@@@@##########@+                  ",
"                    ..++@+++@@##@@@@@@@@@@@###@############@@@@@@@##########@+                  ",
"                    ..+++++@@@##@@@#@@@@@@@@@@@@##########@###@@@@##########@@+                 ",
"                     .+++@@###@@@@@@@@@@@#@##@@@###############@@@##########@@++                ",
"                     .++@######@@@@@@@@@@@@##@@@@########@#####@@@@########@@@++                ",
"                     ++@#######@###@@@@@@@@@@@@@@@@######@#####@@##########@@@++                ",
"                     ++@############@@@@@@@@@@@@@+@@@#####@###@@@##@@####@@@@@+++               ",
"                     +@@######@#####@@@@@@@@@@@@+++@@#####@@@@@@@@@@@@@@@@##@++++               ",
"                     +@@#####@@#####@++++@@@@@@@@++@@#####@@@@@@@@@@#@@@@@##@++++               ",
"                     +@@@###@@@@###@@+++@###@@@@@@++@@###@@@@@@++@@@@@@@#@@@+++++               ",
"                     +@@@@@@@@@@@@@@@++@#####@@#@@@++@@@@@@@@@++++###@@@@@@@@++++               ",
"                     +@@@@@@@@@##@@@@+@@#####@@@@@@@+++@@@@@+++++#####@@@@@@@@+++               ",
"                     ++@@@@@@@@##@@@++@@######@@@@@@+++@@@@++@@+@#####@@@@@@@@+++.              ",
"                    .++@@@@@@@@@@@@@++@@@######@@@#@++@@#@@@+@@@@#####@@@#@@@@+++.              ",
"                    ..++@@@@@@@@@@@+++@@#@@####@@###+@@@@@@@@++@@@###@@@@@@@@@++..              ",
"                    ..+++@@@@@@@@@+++++@@@@@@@@@@###@@@@@@@@@++@@@@@@@@@@@@@@+++..              ",
"                    ..++@@@@@@@@@@@@++++@@@@++@@@###@@@@@@@@@++@@@@@@@@+@@@@++++..              ",
"                    ...+@@@@+++@@@@#@++++++@@++@@@#@@@@@@@@@@+++@@@@@@+++++++++...              ",
"                    ...++@@+++@@@@@@@@+@++@@@@+@@@@@@@@@@@@@++@++@@@@++@@+++++...               ",
"                     ...++++++@@@@@@@@++++@@@@+@@@@@@@@@@@@+++++++++++@@@@++++...               ",
"                     ....++@@+@@@@@@@@+++++@@++@@@@@@@@+++++++++@@++++@@@@+++...                ",
"                      ...+++@+@@@@@@@@++++++++++@@@@@@++++++++++@@+++++@@+++....                ",
"                      ....+++++@@@@@@++++++++++++@@@@+++..++++++++++++++++.....                 ",
"                       ....+++++@@@@++@++++++@@++++++++....++++++++++++++....                   ",
"                         ...+++++++++@@@++++++@+++++++........++++++++.....                     ",
"                          ....+++@@+++++++++++++++++.....................                       ",
"                           ....++++++++++++++++++++....................                         ",
"                            .....++++++++++++++++....................                           ",
"                             .......++++++++++......... ......                                  ",
"                               ......................                                           ",
"                                ....................                                            ",
"                                  ................                                              ",
"                                     ..........                                                 ",
"                                                                                                ",
"                                                                                                ",
"                                                                                                ",
"                                                                                                ",
"                                                                                                ",
"                                                                                                ",
"                                                                                                ",
"                                                                                                ",
"                                                                                                ",
"                                                                                                ",
"                                                                                                ",
"                                                                                                ",
"                                                                                                "};
