/* XPM */
static xpm_string_t exp3_xpm[] = {
"96 96 7 1",
" 	c None",
".	c #774D22",
"+	c #D18023",
"@	c #AF6B26",
"#	c #FF9519",
"$	c #FFF423",
"%	c #FFFFFF",
"                                                                                                ",
"                                                                                                ",
"                                                                                                ",
"                                                                                                ",
"                                                                                                ",
"                                                                                                ",
"                                                                                                ",
"                                                                                                ",
"                                                                                                ",
"                                                                                                ",
"                                                                                                ",
"                                                                                                ",
"                                                                                                ",
"                                                                                                ",
"                                                                                                ",
"                                                                                                ",
"                                                                                                ",
"                                                                                                ",
"                                        ...... +++++++@@                                        ",
"                                 @@@@@......@+++++++++++@@@                                     ",
"                               @@@@@@@@@...++++#$$$$$+##++@@                                    ",
"                              @@++++@@@@@@+++#$$%%%%$$$##++@@@                                  ",
"                             @@++++++@@@@++##$%%%%%%%%$$#+++@@@.                                ",
"                            .@++++++++@@++##$$%%%%%%%%$$$#+++@@@..                              ",
"                          ..@@++####++@@++##$%%%%%%%%%%$%#+++@++++@@                            ",
"                        ....@@########@++##$$%%%%%%%%%%%%%#+####++++@@                          ",
"                       ..@@@@+#$$#$$$#@++##$$%%%%%%%%%%%%%##$$$###+++@                          ",
"                       @@@+++##$$$%%$$#+###%%%%%%%%%%%%$%%#$%%$$##+++@@                         ",
"                      .@@+++####$%%%%$$+###%%$%%%%%%%%$$$$$%%%$$$##+++@                         ",
"                     .@+++#%%%%$$%%%%$$+#$$$$$%%%%%%%%%%$$$%%$$$$##+++@                         ",
"                   ..@++#%%%%%%%%$%%$$$+$$%$$$$$%%%%$%%%$#$$$$$%$##+++@                         ",
"                  ..@++#$%%%%%%%%$$$$$##$$$$$$%$$$$$$%%$$##$$$$$###+++.                         ",
"                  .@+++$%%%%%%%%%%$$$#$$#$$##$%%$$$%$$$$####$$$###+++@..                        ",
"                 .@+++#$%%%%%%%%%%$$##$#######$$$$$$$$$#$$########+++...                        ",
"                 @@+++$$%%%%%%%%%%$$$###+##$####$$$$$##$$$$+##$#++++@...                        ",
"                .@+++#$$%%%%%%%%%%$$$$###+###$$$$######$$$$++####+@@@...                        ",
"                @++++#$$$%%%%%%%%$$%%%$##+#$$%%%$$$##$##$$+++####++@@...                        ",
"               @@+++##$$$%%%%%%%%$%%%%%$#++$%%%%%$$######++###$$$$#++@@.                        ",
"               @@+####$%%$$%%%%$$$%%%%%$#+$$%%%%%$$$###++###$$$$%%%$#++@@                       ",
"               @++#####%%$$$$$$$$$%%%%%$#+$$%%%%%$$$#++++#$#%%$%%%%%##++@@                      ",
"              @@+##$$##$$$$$%$$%%$$%%%$##+$$$%%%$$%$++++###$%%$%%%%%$##+@@@                     ",
"              @@+#$%$$##$$$$$$$%%$$$$$##+#$$$$$%%$$$++++###$$$$%%%%%$##++@@                     ",
"              @@+#$$$$###$$$$$$$$$#########$%$$%%$$#++@+#$#$$%$$%%%$$###+@@@                    ",
"              @@+##$$####$$$$$$$#######$$$#$$$$$$$$#@@++###$$$$$$$$$$###++@@                    ",
"              @+++######$%%$$#########$%%$$##$$$$##@@@+++###$$$$$$$$####++@@.                   ",
"              @+++##$##$%%$$$$###$$##$$%%$$$#######+@@+++###$$$$$$%$$###++@@.                   ",
"              @@++++###$$$$$$$##$$$$#$%$$$$$#######++###$$####$$$$$$$$##++@@.                   ",
"              @@++++###$$$$$$$##$$$$#$$$$$$$###$$##+###$$$$##$####$$$$#+++@..                   ",
"              @@@+++####$$$$$####$$+##$$$$$###$%$$##$$#$$$$####$$##$$##+++@..                   ",
"              .@@+++#$$##$$$#$$####+###$$$####$$$$##$$##$$#####$$#####+++@...                   ",
"              .@@+++##$######$$####+###########$$##########+#########++++...                    ",
"              .@@@+++#############+++#####$$######+#####$##+++#######+++....                    ",
"              ..@@+++######$######+++#####$$######++######++++++++##++++@...                    ",
"              ..@@@+++###########+++++###########++++####++++++####++++@@...                    ",
"               ..@@@+++#########+++++++#########+++++++@@@@+++#####$$$$@@...                    ",
"               ...@++##++########+####+++#####++++++++@@@@+++####$$$%%%$$@.                     ",
"                .@@+####+######$##$$###++++++@@@++++@@@@@++++#$##$$%%%%%$@.                     ",
"                .@@+####+########$$$$###++++@@@@@@@@@@@@@++++###$$%%%%%%%$.                     ",
"                 @+++##++########$$$$###+++@@@++++@@@+@@+++++###$$%%%%%%%$..                    ",
"                 @++++++++########$$####+@@@+++####+@@@@++++####$$%%%%%%%$#.                    ",
"                  @@+++++++####+##########@+++##$$##+@@+++##$$##$$$%%%%%$$#..                   ",
"                  @@++@++++++++@@##########++##$%$$##@@++##$%$$##$$$%%%$$##@.                   ",
"                   .@@@++++++++@@+####+####++##$$$$##+@+###$$$$##$$$$$$$$##@.                   ",
"                   ....@++++++@@++++##++##++##$$$$#$#+++####$$#####$$$$####@.                   ",
"                    ...@@++++@@@+++####++++###$$#####+++##################+@.                   ",
"                      ..@@@@@@+++++####++++#########++++#########$###$$###+@.                   ",
"                       .@@+@@+++++++##++++++##+####++++++############$###+@@.                   ",
"                        .@@@@+++@+++++++++++++++++++##++++####+#########++@@.                   ",
"                        ...@@@++@++++++++++@+++++++####++++++++++#####+++@@@.                   ",
"                         ....@@@@@++++++++@@@++++++####+++++++++####+++++@@..                   ",
"                           .....@@@+++++@@@++@++++++##++@@++++++####++++@@@..                   ",
"                             ..@@@@+++@@@@@@+@++++++++++@@@@+++++##+++@@@@..                    ",
"                              .@@@@+++@@@+@@@@@++++++++@@@@++@++++++@@@@@@..                    ",
"                               @@@@@++@@@+++@+++@++++@@@@+@++@@@@@@@@++@@@.                     ",
"                               ..@@@@@@@++++@+++@@@@@@@@@@@@@@@++@++@+@@@..                     ",
"                                ...@@@@.++++@@@@@@@@@@+@@@@+++@++@++@@@...                      ",
"                                  .@@..@@@++@@@++++@@@@@@@+++++++@@@@@@..                       ",
"                                    ...@@@@@@@@++++@@@...@+++++@@@@..@@.                        ",
"                                       ..@@@@@++++@.@@.....@@@@@@.....                          ",
"                                        ..@@@@@@@.....  ............                            ",
"                                          @@..@@....                                            ",
"                                            ......                                              ",
"                                                                                                ",
"                                                                                                ",
"                                                                                                ",
"                                                                                                ",
"                                                                                                ",
"                                                                                                ",
"                                                                                                ",
"                                                                                                ",
"                                                                                                ",
"                                                                                                ",
"                                                                                                ",
"                                                                                                ",
"                                                                                                ",
"                                                                                                "};
