/* XPM */
static xpm_string_t exp4_xpm[] = {
"96 96 8 1",
" 	c None",
".	c #AF6B26",
"+	c #774D22",
"@	c #D18023",
"#	c #FF9519",
"$	c #FFF423",
"%	c #FFFFFF",
"&	c #632F1D",
"                                                                                                ",
"                                                                                                ",
"                                                                                                ",
"                                                                                                ",
"                                                                                                ",
"                                                                                                ",
"                                                                                                ",
"                                                                                                ",
"                                                                                                ",
"                                  ......++                                                      ",
"                                ...@@@....+                ++......                             ",
"                              ....@@@#@.....              +...@@@....                           ",
"                             ..@@@@@@@@##@...            ..@@@@@####...                         ",
"                             .@@@####@@##@@..+          ..@##@###$$###..                        ",
"                            .@@#$%%$$##@@@@...+++....+++..@#@@##$%%$##..                        ",
"                            @@@$%%%$$$###@###@+..@@@......@@@##$%%$$###..                       ",
"                           .@@#$%%$$$$###@###@@.@#@###@..@@###$$$$$$$##..                       ",
"                           .@@#$$$$$$####@@##@@.@@#$$##@.@#$$#$$$$#$$##...                      ",
"                          +.@@##$$$$$$##@@@@@@@.##$%$$#@@@#$$##$$######@..+                     ",
"                         ++..@###$$#$$##@@###@@@##$$$$#@@@#########$##@@@..+                    ",
"                       ++.....@########@@#$$$###$$#$$###@@@###########@@@@...                   ",
"                       ..@@#..@##$$####@@#$$####$$######@.@@@@@@####@@@#$$@@..                  ",
"                     ...@@###@@##$$##@@@@#####@@###@@##@@..@#@@@@@@@@@##$$#@@.                  ",
"                    ....@@@@@@@#####@##@@@###@@#@@@@@@@@....@##@@@@##@##$$$@@..                 ",
"                   +.@@@####@@@#####@#@@@#####@@@.@@@@@..@######@@@##@###$$@@..                 ",
"                  +.@@#%%$$###@@###@@@@##$$$$###@......@###$%%$##.@@@@@###@@##.+                ",
"                  +.@@$%%$$$##@@@..@@@##$%%$$$###@....@###$%%%%$$#.@@@@@@@@###.+                ",
"                  ..@#$$$$$$###@@@..@###$%%$$$####@@@@#$$#$%%%%$%$#..@@@#@@##@.++               ",
"                  ...#%$$$$####@@@...#$$$$$$$$####@@@@####$%%$$$%%##..@@@@@@@@...++             ",
"                  ...#$$$$####$$#@..#$$%$$$$$$#$$###$%%$##$$$$$$$$$#....@@@####....+            ",
"                 +...##$$###$#$$##.@#$$$$$$$$##$$##$%%%$$##$$$$$$$$##@..@##%%$###...+           ",
"                 +..@@############@@#$$$$$$########$$$$$$#$$$$$$$$$##@@..#$%%$$##...+           ",
"                 +.@#@###$########@@#$$$$$$#$$###$#%$$$$$#$$#$$$$$$##@@@#$$$$$$###...+          ",
"                 +.@@@@@#$$#@@###.@@##$$$$##$$#####$$$$$$#####$$$$##@@@@#$$$$$####@..+          ",
"                ++.@@@@#####@@@...@@@###############$$$$#####$$####@@@@@##$$$##$##@@..          ",
"               ++...@@@#####@@@...@@@##$#################$###$$####@@@$$##########@@..          ",
"              ++..######$###@@...+.@@@####$######$################@@@#$$#########@@@..          ",
"             ++.#$$$$######@@.+++++.@############$$###############@@@############@@...          ",
"            ++##$%%%$$##$$##@@.+++.##$$%$#####@##########@########@@@#####@####@@@@...          ",
"           ++##$$%%%$$$$$$$##@..+.@#$$%%%$#@@@@@########@###@@###@..+.###@@@@@@@@@@@..          ",
"           +.#$%$%%$$$$$$$$##@@..@##$$$%%$##@#@@@.####@@#####@@@@@..++..@@@@@@@@@@@@.+          ",
"          ++##$%$$$$$$#$$$$###@#####$$$$$$##@@@@...++.@@#####@@@@..++++..@@@@@.@@@@@.+          ",
"         ++.##$$$$$$$$##$$########$#$$$$$$##@....++++++.#####@@@..@@.++@@@##....@@@.+           ",
"         ++###$$$$$$$$$####$#########$$$$###...++++....@@###...+.###@.@@#####.......+           ",
"         +@#$##$$$$##$$####################.+++++.@@@@@@@@@.+++.#####@@######@.....+            ",
"        ++@###$$$#################@########++++..@#$$##@@@###.+.#####@@#######..+++             ",
"        ++@###$$$#$###############@.@####@.+++..#$%%$$########..#####@@@@#####.++               ",
"        ++@###$$##################....@@@.+++..##$$$$$##$#####...###@@@#@#####.++               ",
"        ++@#######################.+....++++..##$$$$$#########@@..@@@@@##@###@.+++              ",
"        ++.######################@.+++++++++.@#$$$###########@@@@....+@@@@@@@.@@@@+             ",
"        &+.@##################@@@@@@@.+++++.@##$$##$$#######@@@@@@++++.@@@@@.@@###@+            ",
"        &&+.##################@@@###@@@.+++.@######$$#######@#@@@@++++++.....@@###@@+           ",
"        &&&.@#################@@#######@.+.@@#$#############@@@@@######..+++.@@###@@+           ",
"        &&+&@@###############@@@########@.@@################@@@$%%$$#####..+..@@@@@.+&          ",
"         &&&.@@############@@@@@########@.@@################@#$%%%%$$#$$###....@@@..+&          ",
"         &&&+.@###########@@##@@@#######@@@@###############@#$%%%%%$$$%$$###.......++&          ",
"         &&++&..###@@#####@@@#@@@@@@###@@@@@@@#############@$$%%%$$$$$$$$#####....++&&          ",
"          &++&&...@@@#####@..@@@@@@@@@@@@@@@@#@###########@#%$$$$$$$$#$$#######.+++&&&          ",
"          &&&&&++..@@@###@....@@#@@@@@@@@@.@@@@##########@@$$$$$$$$$$#####$$###.+++&&           ",
"           &&&&++++.@@@@@..+...@@@##@@@#@@..@@@############$$$$$$$$$##$####$##@..++&&           ",
"            &&&&++++++......+...@@###@@@@.+..@@@###@@@######$$$$$$$###########@..+&&            ",
"             &&&&++++....@.......@@##@@@..++......@@@@########$$$$$###########@@..&&            ",
"              &&+++++..@.....+....@@@@@..+++..@@..@@#@######$#$$$$$#$$#####$%$#@@.+&&           ",
"               &&+++&...@##@@++.........++.@..@@..@@@@@########$$$##$$####$$%%$#@.&&&           ",
"                &&&&&..@####@@+++.....+++.........@@@@@@@@##############$$%$$%$#@.&&&           ",
"                  &&++@@####@@@.++++++++@###@......@@@@#@@.############$$$$$$$$@@.+&&           ",
"                   +++@@@##@@#@..++....@####@@..&...@@@@@..############$$$$$$$#@@.++&           ",
"                  &+++@@@@@@##@..+....@@####@@@.++..........###########$$$$$##@@..++&           ",
"                  &++.@@@#@@@@@....@@.@@###@@#@.+..@@..@.+..############$$$##@@..++&&           ",
"                  &++.@@@@@@@@@.@..@@.@@@@@@@@@++..@@....+...#########$######@@..&&&&           ",
"                  &++..@@@@@@@........@##@@@@@@.+........++..############@###@..+&&&&           ",
"                  &&+...@@@@@.........@##@@@@@@.+........++...@########@@@@@@...+&+&            ",
"                  &&&+........@@.+.....@@@@#@@...+......++++...@@@###@@@@@@....++&&&            ",
"                   &&&....@...@..++.....@@@@@@@..++....++++++...@@@@@@@#@@....+++&&&            ",
"                   &&&+.........+++++......@@@@..+++++++&+++++......@@@@@....+++&&&             ",
"                    &&&&+.....+&&&+++...@...@@...&+++++&&&++++++...........++++&&&&             ",
"                    &&&&&&&+++&&&&&&&+....@.....&++&&&&++&&+++++++.......+++++&&&&              ",
"                     &&&&&&++&&&&&&&&+..........++++&&&++&&+++++++++++++++&&&&&&&               ",
"                       &&&&&&&&&&  &&++........+++++&&&&&&&&++++++++&&&&&&&&&&&&                ",
"                         &&&&&&    &&&+++....++&+++&&&&&&&&&&&+++++&&&&&++&&&&&                 ",
"                                    &&&+++++++&&&&&&&&&  &&&&&&&&&&&&+&&&&&&&&                  ",
"                                    &&&&+++++&&&&&&&&     &&&&&&&&&&&&&&&&&&&                   ",
"                                     &&&&&&&&&&&            &&&&&&&&&&&&&&&                     ",
"                                      &&&&&&&&&                &&&&&&&&&                        ",
"                                        &&&&&                                                   ",
"                                                                                                ",
"                                                                                                ",
"                                                                                                ",
"                                                                                                ",
"                                                                                                ",
"                                                                                                ",
"                                                                                                ",
"                                                                                                ",
"                                                                                                ",
"                                                                                                ",
"                                                                                                "};
