/* XPM */
static xpm_string_t exp5_xpm[] = {
"95 95 6 1",
" 	c None",
".	c #632F1D",
"+	c #774D22",
"@	c #AF6B26",
"#	c #D18023",
"$	c #FF9519",
"                                                                                               ",
"                                                                                               ",
"                                                                                               ",
"                                                                                               ",
"                                                                                               ",
"                                                                                               ",
"                              .....                                                            ",
"                            .........                                                          ",
"                           ..+++++....                       .....                             ",
"                          ..+@@++++.... .....              .........                           ",
"                          .+###@+@@+...........           ...+++++...                          ",
"                         ..@###@++@+.+..........         ...+++++++...                         ",
"                         ..@###@@+++.....+++++...   .......++@@+++++..                         ",
"                         ..+@@@@@@++...+++++++++. ...+++++.+@@@@++++...                        ",
"                         ..+++@@@@++..++@@@@+++++...++@##+++@@@@++++...                        ",
"                         ...+++@@++..+@###@@@@+@++.++@#$##+++@@++@++....                       ",
"                          ++++++++...+#$$##@@@++++.++@####@+++++++++......                     ",
"                       .++@@@@@+++..+@#$$##@@@@++++++@@##@@++++@+++...++...                    ",
"                     .++#$$##@@@@++++@#####@@@@+@@+++@@@@@@+.+++++..+.++....                   ",
"                   ..++#$$$$##@@@@+++@@###@@#@@+@@+++@@@@@@@@+++++..........                   ",
"               .  ...+#$$$$$###@@@@++@@@@@@@@@@++++.++@@@@@@@@++++++...+++...                  ",
"                  ..++$$$$$$#$$###@+++@@@##@@@+++++..++++@@@@@@++@@++..++++..                  ",
"                 ...+@$$$$$#$$$$###@++@@@##@@@++++........@@@@@+@@@@+...+++..                  ",
"                 ..++@#$$###$$$$###@++++@@@@@##@++.......+++@@++@@@@++....... .                ",
"                ...++@#######$$####@+++++++@#$##@........++++++++@@+++.......                  ",
"                ...++@@#######@###@@+@+++++@####@+++++++.+@##@++++++++......                   ",
"                ...++@@@#####@@@@@@@+++..++@@##@@++@@++++@#$##@+++++@+..+@@++                  ",
"           .    ...+++@@@@@@@@@@@@@++++....@@@@@@+@#@@++@@####@@+@@+++.+@@@@++.                ",
"                ...+++@@#@@@@###@@@@+++..+++@@@@@+@@@@++@@@##@@@+@@++.++@@@@+++.               ",
"                ....+++@@@@@@###@@@@@+..++@@@@@@@@@@@+++@@@@@@@@+++++.+++@@++++.               ",
"             ..  ...++++@@@@@###@@@@@+.++@@@####@@@@++++@@@@@@@@++++..++++++@++..              ",
"             ..  ....+++++@@@@@+++@@+.++@@#$$$$###@@@++++@@@@@@+++....+@@@+++++..              ",
"                  ...+@++++@@+++++++++++@#$$$$$$###@@+++@@@@@@++++..++++@@+++++...             ",
"           .     +++++++++@@@@++++++.++@@#$$$$$$###@@@@@@#####@++++++@@+++++++....             ",
"              .+++####@+++@@@@++++..+++@#$$$$$$$####@@@@##$$###@+++@@@@@+++++.....             ",
"             +++########@++@@+++...++++@#$$$$$$#####@@@##$$$$###@+@#$#@@+++.......             ",
"           .++@##$$$$####@+++..++..+++@@##$$$$#$$###@##$$$$$$$##@+@@##@@+++.+.....             ",
"          .+@@@#$$$$$$###@@+++.++..++@@@######$$$$#####$$#$$$$$#@@@@@@@@+++.......             ",
"         .+@@@#$$$$$$$####@++++...+++@@@@#$$##$$$$#@###$$##$$$$#@@@@@@@@+++......  .           ",
"         .@@@##$$$$$$$#$$#@@+++...++@@####$$###$$##@@#######$$##@@+@@@@+++.......              ",
"        .+@@#$$$$$$$$$#$$#@@++++..++@#$$##########@@@@@@#######@@@+++++++.......               ",
"       ..@@#$$$$$$$$$#####@@++++..++@#$$##@@####@@@@@#@#######@@@@+++...........               ",
"       .+@@#$$$$$$$$#####@@@+@@++.++@#####@@#$#@@@@+@@@#####$##@@++++.++.......  ..            ",
"       .+@@#$$$$$$####$$#@@@+@@++.++@@###@@#$$##@@@+@@@@##@####@@+@++.++.....    .             ",
"      ..+@@#$$$$$$###$$$#@@++++++.+++@@@@@@#$###@@+++@@@@@@@##@@++@@+........                  ",
"      ..+@@##$$$$####$$$##@@+++++.+++@@@@@@#####@@++++@@@@#@@@@++++++....++++..                ",
"      ..++@@#######@@#####@@@@+++.++++@@@@@@###@@+++@+++@@@@@@@@@++++...+@@+++..               ",
"      ..++@@@#####@@@########@+++..+@++@@@@@@@@@+++++++++++@@@###@@+...+@@@++++..              ",
"      ..+++@@@@@@@@@@@####$###@++..++++++@@@@@++@@@@+++@+++@@#$$##@+...@@@@++++..              ",
"      ...++@@##@@@@@@@@@@#####@+...+++++@@@@++@$$#@@@@+@@+@@@#####@@+++@@@+++++...             ",
"      ...++@####@@@++@@@@#####@++...+@@+@@@@++#$$##@@@++++@@@#####@@+++++++++++...             ",
"      ....+@####@@@++@@@@@###@@++++.+@@++@@++@#$###@@@@+++@@@@###@@@++@@@@@+++....             ",
"       ...+@@##@@@@+++@@@@@@@@+++++++++++++++@######@@@+++@@#@@@@@@@@@@#####@+....             ",
"       ....+@@@@@@++++@@@@@@@@+++@@@@++++++++@@######@@++++@@@@@#@@@@@#$$$$##@+...             ",
"       ..+..+@@@@+@@++++@@@@++++@@@###.++++++@@@@####@@++++@@@@@@@@@@#$$$$$$##@+.              ",
"        .....++++@@@@++++++++++@@@#$$##.++++++@@@@##@@++@@+++@@@@+@@@#$$$$$$##@+.              ",
"         ......++@@@@+++@@@@+++@@@$$###..+++@@@@@@@@@@++@@+++++++@@@@#$$$$$###@@+              ",
"         .....+..+@@+++@##@@@++@#######+.++@@@@+@@@@++++++++++@@+@@@@##$$$####@@+.             ",
"          ......++..++@#$##@@@+#######@+.+@@@@@+++++++++++++@###@@############@@++             ",
"           .....++..+@@####@@@+####@@@@++@@@@@++++++++++.++@@###@#$##########@@@++             ",
"             .......++@@##@@@@+@##@@@@@++@@@@++++++++....++@@###@#####@#####@@@@++. ..         ",
"         .    ......++@@@@@@@@+@@@@@@@@+++@@++@+++@@+....++@@@@@@#####@@@@@@@@@+++. ..         ",
"                 ...+++@@@@@@+++@@@@@@+++++++++++@@@@.++.++@@@@@@@###@@###@@@@@+++.            ",
"             ..   ..+@@+@@@@@@+++@@@@++.++@++++++@@@@.++.+++@@@@@@@@@@@##@@@@@++@+.            ",
"             ..  ..+@@@@++@@@@+++++++++..+++++++++@@..++.++++@@@@@++@@@@@@@@@+++++.            ",
"                 .++@@@@+++@@+++++++++...+++++++++++......++++++++++++@@@@@+@@+++..            ",
"                ..+++@@+++++++++@+++@@+...+++++++++.......++++++@+@@+++++++@@@@++..            ",
"             .  ..++++++@++++++++++@@@@+....+++++..........+++++++@@+++++++@@@@+...            ",
"                ..+++++++++++++++++@@@@+..+........+.......+++++++++++++@@++@@++..             ",
"                ...++++++..+++++++++@@++.+++................++++++++@++@@@@++++...             ",
"                ....++++........++++++++.....................++++++++++@@@@+++....             ",
"                 ........+.......++++++............... .......++++++++++@@+++....   .          ",
"                 ....++.......++..++++...............   ........+++++++++++.....               ",
"                  ............++....................    ......+...+++++++.......               ",
"                   .................+......  .....       ......................                ",
"                .    .....  ...............               ....................     ..          ",
"                            ...............   ..    ....    ................   .   .           ",
"                             .............    ..   .++...    ..............                    ",
"                     ..   .  .............         .++...       ........                       ",
"                    ....      ...........          ......                                      ",
"                    ....       .........   ....    ......     .          ..                    ",
"                     ..          .....    ......    ....           ..   ....                   ",
"                                         ........                  ..   ....                   ",
"                          ..             ........                        ..                    ",
"                           .        .    ........                                              ",
"                                         ........   ..               .                         ",
"                                          ......    .                                          ",
"                                           ....                                                ",
"                                                                                               ",
"                                                                                               ",
"                                                                                               ",
"                                                                                               ",
"                                                                                               ",
"                                                                                               ",
"                                                                                               "};
