/* XPM */
static xpm_string_t exp6_xpm[] = {
"96 96 5 1",
" 	c None",
".	c #632F1D",
"+	c #774D22",
"@	c #AF6B26",
"#	c #D18023",
"                                                                                                ",
"                                                                                                ",
"                                                                                                ",
"                                                                                                ",
"                                                                                                ",
"                                  .....                                                         ",
"                                .........                                                       ",
"                               ...+++.....                                                      ",
"                              ...+++++.....     ....             ......                         ",
"                              ..+++++++....    ......           ....+++.                        ",
"                             ...+++++++.....  ........  .      ....+++++.                       ",
"                             ...+++++++.....  ........        ....+++++++.  ..                  ",
"                             ....+++++......  ........       .....+++++++.. ..                  ",
"                         .   .....+++.......  ........       .....+++++++..                     ",
"                             ...............   ......  ....  ......+++++...                     ",
"                        .+++...+...........     ....  ...... .......+++....  ....               ",
"                       .+++++..............          ...................... .+....              ",
"                      .+@@@+++......+.....           ..............................             ",
"                     .+@@@@@++...........          .......... ............ ........             ",
"                    .++@@@@@++..............    .......+++++..+++........  ........             ",
"                    .+++@@@++..+..   ..+++.... ......+++++++++++++......   ........             ",
"                    .++++++++.++..  ..+@@++.........+++++@@@+++++++....     ......              ",
"                    ..++@+++..++.. ..+@@@+++....+..++@++@##@@++++++    ....  ....               ",
"                    ...++++....... ..+@@@+++.......++++@####@@@@+++.  .+++..                    ",
"                    .....+++.........+++++++.++++++++++@####@##@@+.....++....                   ",
"                 .   ....+++..... ....++++++++@@@@+++++@@##@####@@+..........                   ",
"                      ..........  .....++++++@@##@@+++++@@@@####@@++.........                   ",
"                       ........   .......++@@#####@@++++@@#@@##@@@++.........                   ",
"              .        .......    .......+@@######@@+++@@@@@@@@@@++++.......  ...               ",
"                      .....        .....+@@@#####@@@++@@@@@@@@@@+++++......  .....              ",
"                     .......       .....+@#@@##@@@@+++@@@@@@@+++++++++..    .......             ",
"           ..    ......++...        ....+@@@@@@@@@++++@@@@@@@++++@@@++...   .......             ",
"               .+++++..++...         ...++@@@@@@+++++++@@@@@++++@@@@@+...   .......             ",
"             .+++++++++.....          ..+++@@@@+++@@++++@@@++++@@@@@@@...    .....     .        ",
"            .++++@@@++++.....    ...  ...+++++++++@@+++++++++++@@@@@@@...     ...               ",
"           .+++@@@@@@++++.+...  .++.. ...+++++@+++++++.+++++@++@@@@@@@...                       ",
"          ..++@@##@@@@+++.......+++.......+++++++++++...++++++++@@@@@++..  .....                ",
"          .++@@####@@@++++++...............+++++++++.....++++++++@@@++++.....+++..              ",
"         ..++@@####@@@++@@+++................+++++....+...++++@+++++++++....+++++..             ",
"         ..++@@@##@@@++@@@@+++....... .....+++++..+.......++++++++++++++...+++++++.  ..         ",
"        ...++@@@@@@@@@+@@@@+++......   ...+++++...........+++++++.+++++....+++++++.. ..         ",
"        ...+++@@@@@@@@@+@@++++...      ...+++++.....++++...+++++...+++.....+++++++..            ",
"        ...+@@+@@@+@@@@++++++....      ....+++....++@@++++..+++.............+++++...            ",
"        ..+@@@@+++++@@++++++.....       ..........+@@@@+++......++...........+++....            ",
"        ..+@@@@++@++++++++....+..       .........++@@@@++++.....+...................            ",
"        ..++@@+++++++++@+++..++..        ...+....+++@@+++++...........  .......+...             ",
"        ...++++++++++++++++......   +++++...++...++++++++++..........   ...........             ",
"         ...+++.....+++++++.....  +++++++++......++++++++++.........     .........    .         ",
"         ............+++++.......+++@@@++@++......++++++++.........      ...........            ",
"          ...+...++...+++.......+++@@##@+++++.....++++++++........     .......+++++...          ",
"          .......++.............++@@####@++++.......++++.........     ....+++++++++++..         ",
"           ....................++@@@####@+@@++.................      ....++++@@@@@@+++..        ",
"        ..  ................. .++@@@@##@@@@@@+..   .........        ....++@+@####@@@+++..       ",
"        .    ............... ..++@@@@@@@+@@@@+...         .....     ....+++@######@@@++..       ",
"               ...........   ..+++@@@@@+++@@++...       ...+++...  .....+++@######@#@+++..      ",
"                 .........   ..++++@@@++++++++...      ...+@@++... ......++@@####@@@@+@+..      ",
"                   ..+++.... ...++++++++@+++++++.      ..+@@@@++.....+++.++@@@@@@@@@++++...     ",
"              .   ..+++++.......++++++++++++++++.     ...+@@@@++....++@@+++@@##@@@@@@+++...     ",
"                  .+++++++.......+++++++++++++++.     ...++@@+++...++@@@@+++@#@@@+@@@@++...     ",
"                 ..+++++++.+......+++++++++..++.   .  ....+++++....++@@@@++++@@@++@@@@+....     ",
"                 ..+++++++..........+++++.......      .....+++.....+++@@+++++++++++@@++....     ",
"                 ...+++++..... ..++.......++...       ..............+++++..+++@@++++++.....     ",
"                 ....+++...... ..++............        ..............+++....++@++++++......     ",
"                 ...+..++++...  ..............         ........... ........++++++++.......      ",
"                  .....++++..     ..........            .........  .......+++++++.........      ",
"                  ......++...       ......       ...      .....     ......+++++++........       ",
"                   .........                    .....               ......+++++++........       ",
"                     .....                     .......        .      ......+++++........        ",
"               ..                 .....   .    .......            ..........+++........         ",
"                .                .+++...  ..   .......           ..+++................          ",
"                     ..    ..   .+++++++.       .....           ..+++++.............            ",
"                     ..    ..   .+++.+++.        ...     ...   ..+++++++.. .......              ",
"                                .....+++.               .....  ..+++++++..                      ",
"                         .      .........           .   .....  ..+++++++..                      ",
"                                .........   ..          .....  ...+++++...  ..    ...           ",
"                                 .......    ..           ...   ....+++....   .   .....          ",
"                                  .....                         .........        .....          ",
"                   ..    ..                                      .......         .....          ",
"                    .    ..                                   ..  .....           ...           ",
"                                               ...            ..             ..                 ",
"                                              .....                    ..    ..                 ",
"                                    ..        .....                                             ",
"                                     .        .....                                             ",
"                                               ...      .                                       ",
"                                                                                                ",
"                                                                                                ",
"                                                                                                ",
"                                                                                                ",
"                                                                                                ",
"                                                                                                ",
"                                                                                                ",
"                                                                                                ",
"                                                                                                ",
"                                                                                                ",
"                                                                                                ",
"                                                                                                "};
