/* XPM */
static xpm_string_t exp7_xpm[] = {
"96 96 3 1",
" 	c None",
".	c #632F1D",
"+	c #774D22",
"                                                                                                ",
"                                                                                                ",
"                                                                                                ",
"                                                                                                ",
"                                                                                                ",
"                                 ....               ..                                          ",
"                                ......             ....              ....                       ",
"                                ......             ....             ......                      ",
"                                ......              ..              ......                      ",
"                                ......                              ......                      ",
"                                 ....  .         .                  ......                      ",
"                                                                     ....                       ",
"                                    .                            ..          ..                 ",
"                                                                 ..         ....                ",
"                         ....                                               ....                ",
"                        .++...                                        .      ..                 ",
"                        .+....                                                                  ",
"                     .........           ..             ......                                  ",
"                    ..........          ....          ...+++....     ....                       ",
"                    .........           ....        ....+++++.....  .+....                      ",
"                    ......               ..     .  ....+++++++.+... ......                      ",
"                    ......  .     ..               ..+++++++++..... ......                      ",
"                     ....        ....        ..   ..++++++++++............                      ",
"                                 ....        ..   .++++++++++..+++.. ....                       ",
"                                  ..             ..+++++++++..+++++..                           ",
"                     .                           ..+++++++...+++++++.            ..             ",
"                                           .     ...+++++....+++++++.           ....            ",
"                                            .... ....+++.....+++++++.           ....            ",
"                            .             .........++++..++...+++++..            ..             ",
"                                          .+++.....++++..++....+++...  ..                       ",
"               ....                      ..+++......++..............   ..                       ",
"             ..+++...           ..       ..+++......................                            ",
"            ..+++++...         ....      .....................+....                             ",
"            .+++++++..         ....      ..........................                             ",
"           ..+++++++... .       ..        ........  ..............  ..        ....              ",
"           ..+++++++...                   ........    ..........    ..       .++... .           ",
"           ...+++++....                     ....        ......            ....++...             ",
"           ....+++.....                                                  ..........             ",
"          ............                        .      ....                ..........             ",
"         ..++......... ..                           ......      ....     .........              ",
"        ...+.........  .                         .  ......  .  .++...    ......                 ",
"        ...........        ..                       ......     .++...     ....  ..              ",
"        .......           ...               ..      ......     ......           .               ",
"         .....            ...               ..       ....      ......                           ",
"          ...   .    .            ....                      ..  ....                            ",
"                                .+++....                    ..             ..                   ",
"                               .+++++....                                  ..                   ",
"                ..      ..     .+++++....                                       ....            ",
"                ...     ..    ..+++++.....                                    ....+++.          ",
"                 ..           ...+++......                                   ....+++++.         ",
"                              ................                               ...+++++++         ",
"                              ............++...                             ....+++++++.        ",
"                               ...........++...        ....           ..    ....+++++++.        ",
"             .    ....         ................       ..+++.         ....   .....+++++..        ",
"                 .+....         ........ ......       ..+++.         ....   ......+++...        ",
"                 ......           ....    ....        ..+++.          ..     ..........         ",
"                 ......               ..              ......                 ..........         ",
"                 ......  .           ....              ....              .    ........  .       ",
"                  ....               ....                        .         ...  ....            ",
"                                      ..                  .     ..        .....                 ",
"                           .     .                                       .......     ..         ",
"                   .             ..                                      .......    ....        ",
"                                                                         .......    ....        ",
"                                                                          .....  .   ..         ",
"                      ..                                                   ...                  ",
"               .       .                         ..                                             ",
"                                  ..             ..                 ....                        ",
"                                 ....                              ......                       ",
"                                 ....                     ..       ......                       ",
"                                  ..                      ..       ......                       ",
"                                                                   ......                       ",
"                                                                 .  ....                        ",
"                                                                                    ..          ",
"                                                                      .             .           ",
"                                                                                                ",
"                         .                                                                      ",
"                                              ..                                                ",
"                                              ..                                                ",
"                                                                                                ",
"                                                                                                ",
"                                                                                                ",
"                                                                                                ",
"                                                                                                ",
"                                                                                                ",
"                                                                                                ",
"                                                                                                ",
"                                                                                                ",
"                                                                                                ",
"                                                                                                ",
"                                                                                                ",
"                                                                                                ",
"                                                                                                ",
"                                                                                                ",
"                                                                                                ",
"                                                                                                ",
"                                                                                                "};
