/* XPM */
static xpm_string_t exp8_xpm[] = {
"96 96 2 1",
" 	c None",
".	c #632F1D",
"                                                                                                ",
"                                                                                                ",
"                                                                                                ",
"                                    ..                                                          ",
"                                   ....               ..                                        ",
"                                   ....               ..                                        ",
"                                    ..                                  ..                      ",
"                                                                       ....                     ",
"                                                                       ....                     ",
"                                                                        ..                      ",
"                                                                .             .                 ",
"                                                                                                ",
"                                                                                                ",
"                                                                                                ",
"                         ..                                                                     ",
"                        ....            ..                                                      ",
"                    ..  ....            ..                                                      ",
"                   ....  ..                                         ...                         ",
"                   ....                                   ....      ...                         ",
"                    ..                                  ........    ...                         ",
"                                   ..                  ..........                               ",
"                                   ..                  ..........                               ",
"                                                      ............                              ",
"                                                   .  ............                              ",
"                                                      ............                 .            ",
"                                           ...        ............                              ",
"                                          .....        ..........                               ",
"                                         .......       ............    .                        ",
"                                         .......     .  ............   .                        ",
"              ...              ..        .......          ..........                            ",
"             .....             ..         .....               ......                            ",
"            .......                        ...          ..    ......                            ",
"            .......                             ..      ..     ....                             ",
"            .......  .                          .            .                                  ",
"          ........                         .                                    ..              ",
"         ........                                                              ....             ",
"        .......                                      ..                        ....             ",
"        .......  ..                                 ....                   ..   ..              ",
"        .......  .                                  ....        ...        ..                   ",
"         .....            ..                         ..         ...                             ",
"          ...             ..                  .                 ...                             ",
"                                              .        .                                        ",
"                                                             .                                  ",
"                                 ...                         ..           ..                    ",
"                                .....                                                           ",
"                          .    .......                                                          ",
"               ..        ..    .......                                                          ",
"                .              .......                                            ...           ",
"                                .....     ..                                     .....          ",
"                                 ...     ....                                   .......         ",
"                                         ....                        ..         .......         ",
"                                          ..                         .          .......         ",
"                     ..                               ..                     ..  .....          ",
"                    ....                             ....                    ..   ...           ",
"                    ....                             ....                                       ",
"                     ..                               ..                             .          ",
"                                                                                                ",
"                   .                                                                            ",
"                            .                                             ..                    ",
"                                ..                                       ....          .        ",
"                                                                         ....                   ",
"                                                                          ..                    ",
"                                                                                                ",
"                                                   .                                            ",
"                                                                                                ",
"                                     .                             .                            ",
"                                                          .       ..   ..                       ",
"                                                                      ....                      ",
"                                                                      ....                      ",
"                                                                       ..                       ",
"                                                                                                ",
"                                                                                                ",
"                                                                                                ",
"                                                                                                ",
"                                                                                                ",
"                                                                                                ",
"                                                                                                ",
"                                                                                                ",
"                                                                                                ",
"                                                                                                ",
"                                                                                                ",
"                                                                                                ",
"                                                                                                ",
"                                                                                                ",
"                                                                                                ",
"                                                                                                ",
"                                                                                                ",
"                                                                                                ",
"                                                                                                ",
"                                                                                                ",
"                                                                                                ",
"                                                                                                ",
"                                                                                                ",
"                                                                                                ",
"                                                                                                ",
"                                                                                                "};
