/* XPM */
static xpm_string_t heart_xpm[] = {
"50 43 39 1",
" 	c None",
".	c #000000",
"+	c #360000",
"@	c #430101",
"#	c #410101",
"$	c #0A0000",
"%	c #D00606",
"&	c #F90909",
"*	c #F20909",
"=	c #D50707",
"-	c #FF0A0A",
";	c #FD0A0A",
">	c #D80707",
",	c #820202",
"'	c #9C0303",
")	c #5E0101",
"!	c #A40404",
"~	c #FB0A0A",
"{	c #C50606",
"]	c #FF8282",
"^	c #FF9D9D",
"/	c #FFD5D5",
"(	c #FFFFFF",
"_	c #FFD0D0",
":	c #FFF9F9",
"<	c #FF3838",
"[	c #FF4444",
"}	c #B20404",
"|	c #E40808",
"1	c #980303",
"2	c #FFA0A0",
"3	c #FFF3F3",
"4	c #F94242",
"5	c #250000",
"6	c #5C0101",
"7	c #FFD3D3",
"8	c #5C0B0B",
"9	c #FFB2B2",
"0	c #E48282",
"          .............    .............          ",
"          .............    .............          ",
"          ...+@@@@@#$..    ..$#@@@@@+...          ",
"       ......%&&&&&*#........#*&&&&&%......       ",
"       ......=-----&@........@&-----=......       ",
"       ......=-----&@........@&-----=......       ",
"    .....+%==*-----;>==,..,==>;-----*==%+.....    ",
"   ......@&------------'..'------------&@......   ",
"   ......@&------------'..'------------&@......   ",
"   ...)''!~------------{''{------]^^]--~!'')...   ",
"......'--------------------------/((/------'......",
"......'--------------------------/((/------'......",
"...+@@!--------------------------_::_------!@@+...",
"...%&&~--------------------------<[[<------~&&%...",
"...=------------------------------------------=...",
"...=------------------------------------------=...",
"...=--------------------------------]//_<-----=...",
"...=--------------------------------^((:[-----=...",
"...=--------------------------------^((:[-----=...",
"...}==|-----------------------------^((:[--|==}...",
"......'-----------------------------^((:[--'......",
"......'-----------------------------^((:[--'......",
"......1&&&-----------------------<[[2::34&&1......",
"   ...5@@6&----------------------_::7[[48@@5...   ",
"   ......@&----------------------/((/--&@......   ",
"   ......@&----------------------/((/--&@......   ",
"      ...51''|---------------<_//9^^0''15...      ",
"       ......=---------------[:((^--=......       ",
"       ......=---------------[:((^--=......       ",
"       ......}==|------------<_//0==}......       ",
"          ......'----------------'......          ",
"          ......'----------------'......          ",
"          ......1&&&----------&&&1......          ",
"             ...5@@6&--------&6@@5...             ",
"             ......@&--------&@......             ",
"             ......@&--------&@......             ",
"                ...51''|--|''15...                ",
"                 ......=--=......                 ",
"                 ......=--=......                 ",
"                 ......}==}......                 ",
"                    ..........                    ",
"                    ..........                    ",
"                    ..........                    "};
