/* XPM */
static xpm_string_t score_xpm[] = {
"149 40 125 2",
"  	c None",
". 	c #000000",
"+ 	c #010101",
"@ 	c #101010",
"# 	c #838383",
"$ 	c #919191",
"% 	c #656565",
"& 	c #1A1A1A",
"* 	c #888888",
"= 	c #5C5C5C",
"- 	c #252525",
"; 	c #8B8B8B",
"> 	c #535353",
", 	c #313131",
"' 	c #8E8E8E",
") 	c #909090",
"! 	c #494949",
"~ 	c #3C3C3C",
"{ 	c #8F8F8F",
"] 	c #3E3E3E",
"^ 	c #232323",
"/ 	c #E8E8E8",
"( 	c #FFFFFF",
"_ 	c #B4B4B4",
": 	c #353535",
"< 	c #EFEFEF",
"[ 	c #A6A6A6",
"} 	c #484848",
"| 	c #F5F5F5",
"1 	c #FEFEFE",
"2 	c #969696",
"3 	c #5B5B5B",
"4 	c #F9F9F9",
"5 	c #858585",
"6 	c #6F6F6F",
"7 	c #FCFCFC",
"8 	c #727272",
"9 	c #B5B5B5",
"0 	c #696969",
"a 	c #FDFDFD",
"b 	c #ADADAD",
"c 	c #606060",
"d 	c #FBFBFB",
"e 	c #979797",
"f 	c #F8F8F8",
"g 	c #A0A0A0",
"h 	c #989898",
"i 	c #EEEEEE",
"j 	c #F4F4F4",
"k 	c #9B9B9B",
"l 	c #959595",
"m 	c #404040",
"n 	c #828282",
"o 	c #707070",
"p 	c #DEDEDE",
"q 	c #202020",
"r 	c #E7E7E7",
"s 	c #020202",
"t 	c #040404",
"u 	c #030303",
"v 	c #6A6A6A",
"w 	c #D2D2D2",
"x 	c #D3D3D3",
"y 	c #C0C0C0",
"z 	c #1C1C1C",
"A 	c #848484",
"B 	c #111111",
"C 	c #4E4E4E",
"D 	c #2C2C2C",
"E 	c #F0F0F0",
"F 	c #3D3D3D",
"G 	c #080808",
"H 	c #EBEBEB",
"I 	c #E4E4E4",
"J 	c #A1A1A1",
"K 	c #E6E6E6",
"L 	c #E5E5E5",
"M 	c #FAFAFA",
"N 	c #E2E2E2",
"O 	c #666666",
"P 	c #7B7B7B",
"Q 	c #F1F1F1",
"R 	c #F2F2F2",
"S 	c #DCDCDC",
"T 	c #212121",
"U 	c #363636",
"V 	c #1E1E1E",
"W 	c #D0D0D0",
"X 	c #F6F6F6",
"Y 	c #777777",
"Z 	c #191919",
"` 	c #C9C9C9",
" .	c #444444",
"..	c #0A0A0A",
"+.	c #070707",
"@.	c #C8C8C8",
"#.	c #383838",
"$.	c #D8D8D8",
"%.	c #A4A4A4",
"&.	c #090909",
"*.	c #818181",
"=.	c #EAEAEA",
"-.	c #1D1D1D",
";.	c #C1C1C1",
">.	c #BBBBBB",
",.	c #181818",
"'.	c #747474",
").	c #0D0D0D",
"!.	c #D1D1D1",
"~.	c #303030",
"{.	c #3B3B3B",
"].	c #DBDBDB",
"^.	c #F7F7F7",
"/.	c #4A4A4A",
"(.	c #C4C4C4",
"_.	c #646464",
":.	c #616161",
"<.	c #AAAAAA",
"[.	c #434343",
"}.	c #E0E0E0",
"|.	c #D6D6D6",
"1.	c #1F1F1F",
"2.	c #898989",
"3.	c #373737",
"4.	c #474747",
"                                                                                                                                                                                                                                                                                                          ",
"                                                                                                                                                                                                                                                                                                          ",
"      . . . . . . . . . . . . . . . . . . . . . . . + .     . . . . . . . . . . . . . . . . . . . . . . . + .     . . . . . . . . . . . . . . . . . . . . . . . + .     . . . . . . . . . . . . . . . . . . . . . . . + .     . . . . . . . . . . . . . . . . . . . . . . . .                             ",
"    . @ # $ $ $ $ $ $ $ $ $ $ $ $ $ $ $ $ $ $ $ $ $ % +   . & * $ $ $ $ $ $ $ $ $ $ $ $ $ $ $ $ $ $ $ $ $ = +   . - ; $ $ $ $ $ $ $ $ $ $ $ $ $ $ $ $ $ $ $ $ $ > +   . , ' $ $ $ $ $ $ $ $ $ $ $ $ $ $ $ $ $ $ $ $ ) ! .   . ~ { $ $ $ $ $ $ $ $ $ $ $ $ $ $ $ $ $ $ $ $ ) ] .                           ",
"    . ^ / ( ( ( ( ( ( ( ( ( ( ( ( ( ( ( ( ( ( ( ( ( _ +   . : < ( ( ( ( ( ( ( ( ( ( ( ( ( ( ( ( ( ( ( ( ( [ +   . } | ( ( ( ( ( ( ( ( ( ( ( ( ( ( ( ( ( ( ( ( 1 2 +   . 3 4 ( ( ( ( ( ( ( ( ( ( ( ( ( ( ( ( ( ( ( ( 1 5 .   . 6 7 ( ( ( ( ( ( ( ( ( ( ( ( ( ( ( ( ( ( ( ( 7 8 .                           ",
"    . ^ / ( ( ( ( ( ( ( ( ( ( ( ( ( ( ( ( ( ( ( ( ( _ +   . : < ( ( ( ( ( ( ( ( ( ( ( ( ( ( ( ( ( ( ( ( ( [ +   . } | ( ( ( ( ( ( ( ( ( ( ( ( ( ( ( ( ( ( ( ( ( 2 +   . = 4 ( ( ( ( ( ( ( ( ( ( ( ( ( ( ( ( ( ( ( ( 1 5 .   . 6 7 ( ( ( ( ( ( ( ( ( ( ( ( ( ( ( ( ( ( ( ( 7 8 .                           ",
"    . ^ / ( ( ( ( ( ( ( ( ( ( ( ( ( ( ( ( ( ( ( ( ( _ +   . : < ( ( ( ( ( ( ( ( ( ( ( ( ( ( ( ( ( ( ( ( ( [ +   . } | ( ( ( ( ( ( ( ( ( ( ( ( ( ( ( ( ( ( ( ( ( 2 +   . = 4 ( ( ( ( ( ( ( ( ( ( ( ( ( ( ( ( ( ( ( ( 1 5 .   . 6 7 ( ( ( ( ( ( ( ( ( ( ( ( ( ( ( ( ( ( ( ( 7 8 .                           ",
"    . ^ / ( ( ( ( ( ( ( ( ( ( ( ( ( ( ( ( ( ( ( ( ( _ +   . : < ( ( ( ( ( ( ( ( ( ( ( ( ( ( ( ( ( ( ( ( ( [ +   . } | ( ( ( ( ( ( ( ( ( ( ( ( ( ( ( ( ( ( ( ( ( 2 +   . = 4 ( ( ( ( ( ( ( ( ( ( ( ( ( ( ( ( ( ( ( ( 1 5 .   . 6 7 ( ( ( ( ( ( ( ( ( ( ( ( ( ( ( ( ( ( ( ( 7 8 .                           ",
"    . ^ / ( ( ( ( ( ( ( ( ( ( ( ( ( ( ( ( ( ( ( ( ( _ +   . : < ( ( ( ( ( ( ( ( ( ( ( ( ( ( ( ( ( ( ( ( ( [ +   . } | ( ( ( ( ( ( ( ( ( ( ( ( ( ( ( ( ( ( ( ( ( 2 +   . = 4 ( ( ( ( ( ( ( ( ( ( ( ( ( ( ( ( ( ( ( ( 1 5 .   . 6 7 ( ( ( ( ( ( ( ( ( ( ( ( ( ( ( ( ( ( ( ( 7 8 .                           ",
"    . ^ / ( ( ( ( 1 9 2 2 2 2 2 2 2 2 2 2 2 2 2 2 2 0 +   . : < ( ( ( ( a b 2 2 2 2 2 2 2 2 2 2 2 2 2 2 2 c +   . } | ( ( ( ( d [ 2 2 2 2 2 2 2 2 e / ( ( ( ( ( 2 +   . = 4 ( ( ( ( f g 2 2 2 2 2 2 2 2 h i ( ( ( ( 1 5 .   . 6 7 ( ( ( ( j k 2 2 2 2 2 2 2 2 2 2 2 2 2 2 l m .                           ",
"    . ^ / ( ( ( ( 1 n + + + + + + + + + + + + + + + + .   . : < ( ( ( ( 7 o + + + + + + + + + + + + + + + . .   . } | ( ( ( ( 4 = + + + + + + + + @ p ( ( ( ( ( 2 +   . = 4 ( ( ( ( | } + + + + + + + + q r ( ( ( ( 1 5 .   . 6 7 ( ( ( ( < : + + + + + + + + + + + + + + + .                             ",
"    . ^ / ( ( ( ( 1 n .                                   . : < ( ( ( ( 7 o .                                   . } | ( ( ( ( 4 = .             . @ p ( ( ( ( ( 2 +   . = 4 ( ( ( ( | } .             . q r ( ( ( ( 1 5 .   . 6 7 ( ( ( ( < : .                                                           ",
"    . ^ / ( ( ( ( 1 n .                                   . : < ( ( ( ( 7 o .                                   . } | ( ( ( ( 4 = .             . @ p ( ( ( ( ( 2 +   . = 4 ( ( ( ( | } .             . q r ( ( ( ( 1 5 .   . 6 7 ( ( ( ( < : .                                                           ",
"    . ^ / ( ( ( ( 1 n .                                   . : < ( ( ( ( 7 o .                                   . } | ( ( ( ( 4 = .             . @ p ( ( ( ( ( 2 +   . = 4 ( ( ( ( | } .             . q r ( ( ( ( 1 5 .   . 6 7 ( ( ( ( < : .                                                           ",
"    . ^ / ( ( ( ( 1 n .                                   . : < ( ( ( ( 7 o .                                   . } | ( ( ( ( 4 = .             . @ p ( ( ( ( ( 2 +   . = 4 ( ( ( ( | } .             . q r ( ( ( ( 1 5 .   . 6 7 ( ( ( ( < : .                                   . s t t t t t u +       ",
"    . ^ / ( ( ( ( 1 n + . . . . . . . . . . . . . . .     . : < ( ( ( ( 7 o .                                   . } | ( ( ( ( 4 = .             . @ p ( ( ( ( ( 2 +   . = 4 ( ( ( ( | } . . . . . . . . q r ( ( ( ( 1 5 .   . 6 7 ( ( ( ( < : . . . . . . . . . . . . . . .       . v w x x x x y z .     ",
"    . ^ / ( ( ( ( 1 A z z z z z z z z z z z z z z z B +   . : < ( ( ( ( 7 o .                                   . } | ( ( ( ( 4 = .             . @ p ( ( ( ( ( 2 +   . = 4 ( ( ( ( | C z z z z z z z z D r ( ( ( ( 1 5 .   . 6 7 ( ( ( ( E F z z z z z z z z z z z z z z z G .   . n 1 ( ( ( ( / ^ .     ",
"    . ^ / ( ( ( ( ( H I I I I I I I I I I I I I I I J +   . : < ( ( ( ( 7 o .                                   . } | ( ( ( ( 4 = .             . @ p ( ( ( ( ( 2 +   . = 4 ( ( ( ( a K I I I I I I I I L M ( ( ( ( 1 5 .   . 6 7 ( ( ( ( 7 L I I I I I I I I I I I I I I N O .   . n 1 ( ( ( ( / ^ .     ",
"    . ^ / ( ( ( ( ( ( ( ( ( ( ( ( ( ( ( ( ( ( ( ( ( _ +   . : < ( ( ( ( 7 o .                                   . } | ( ( ( ( 4 = .             . @ p ( ( ( ( ( 2 +   . = 4 ( ( ( ( ( ( ( ( ( ( ( ( ( ( ( ( ( ( ( ( 1 5 .   . 6 7 ( ( ( ( ( ( ( ( ( ( ( ( ( ( ( ( ( ( ( ( 7 8 .   . n 1 ( ( ( ( / ^ .     ",
"    . ^ / ( ( ( ( ( ( ( ( ( ( ( ( ( ( ( ( ( ( ( ( ( _ +   . : < ( ( ( ( 7 o .                                   . } | ( ( ( ( 4 = .             . @ p ( ( ( ( ( 2 +   . = 4 ( ( ( ( ( ( ( ( ( ( ( ( ( ( ( ( ( ( ( ( 1 5 .   . 6 7 ( ( ( ( ( ( ( ( ( ( ( ( ( ( ( ( ( ( ( ( 7 8 .   . n 1 ( ( ( ( / ^ .     ",
"    . ^ / ( ( ( ( ( ( ( ( ( ( ( ( ( ( ( ( ( ( ( ( ( _ +   . : < ( ( ( ( 7 o .                                   . } | ( ( ( ( 4 = .             . @ p ( ( ( ( ( 2 +   . = 4 ( ( ( ( ( ( ( ( ( ( ( ( ( ( ( ( ( ( ( ( 1 5 .   . 6 7 ( ( ( ( ( ( ( ( ( ( ( ( ( ( ( ( ( ( ( ( 7 8 .   . P Q R R R R S T .     ",
"    . ^ / ( ( ( ( ( ( ( ( ( ( ( ( ( ( ( ( ( ( ( ( ( _ +   . : < ( ( ( ( 7 o .                                   . } | ( ( ( ( 4 = .             . @ p ( ( ( ( ( 2 +   . = 4 ( ( ( ( ( ( ( ( ( ( ( ( ( ( ( ( ( ( ( ( 1 5 .   . 6 7 ( ( ( ( ( ( ( ( ( ( ( ( ( ( ( ( ( ( ( ( 7 8 .   . & ~ ~ ~ ~ ~ U t       ",
"    . V W I I I I I I I I I I I I I I I j ( ( ( ( ( _ +   . : < ( ( ( ( 7 o .                                   . } | ( ( ( ( 4 = .             . @ p ( ( ( ( ( 2 +   . = 4 ( ( ( ( a K L X ( ( ( ( ( Q L I I I I I I Y .   . 6 7 ( ( ( ( 7 L I I I I I I I I I I I I I I N O .     . . . . . . . .       ",
"      + Z z z z z z z z z z z z z z z z ` ( ( ( ( ( _ +   . : < ( ( ( ( 7 o .                                   . } | ( ( ( ( 4 = .             . @ p ( ( ( ( ( 2 +   . = 4 ( ( ( ( | C V g d ( ( ( ( p  .z z z z z z ...   . 6 7 ( ( ( ( E F z z z z z z z z z z z z z z z +..                           ",
"        . . . . . . . . . . . . . . . + @.( ( ( ( ( _ +   . : < ( ( ( ( 7 o .                                   . } | ( ( ( ( 4 = .             . @ p ( ( ( ( ( 2 +   . = 4 ( ( ( ( | } + #.$.( ( ( ( 7 %.&.. . . . . .     . 6 7 ( ( ( ( < : . . . . . . . . . . . . . . .                               ",
"                                      + @.( ( ( ( ( _ +   . : < ( ( ( ( 7 o .                                   . } | ( ( ( ( 4 = .             . @ p ( ( ( ( ( 2 +   . = 4 ( ( ( ( | } . u *.X ( ( ( ( =.= + .             . 6 7 ( ( ( ( < : .                                                           ",
"                                      + @.( ( ( ( ( _ +   . : < ( ( ( ( 7 o .                                   . } | ( ( ( ( 4 = .             . @ p ( ( ( ( ( 2 +   . = 4 ( ( ( ( | } . + -.;.1 ( ( ( 1 >.,..             . 6 7 ( ( ( ( < : .                                                           ",
"                                      + @.( ( ( ( ( _ +   . : < ( ( ( ( 7 o .                                   . } | ( ( ( ( 4 = .             . @ p ( ( ( ( ( 2 +   . = 4 ( ( ( ( | } . . + 3 i ( ( ( ( j '.s .           . 6 7 ( ( ( ( < : .                                                           ",
"                                    . + @.( ( ( ( ( _ +   . : < ( ( ( ( 7 o .                                   . } | ( ( ( ( 4 = .             . @ p ( ( ( ( ( 2 +   . = 4 ( ( ( ( | } .   . ).%.7 ( ( ( ( !.~.+           . 6 7 ( ( ( ( < : .                                                           ",
"      . + + + + + + + + + + + + + + + s @.( ( ( ( ( _ +   . : < ( ( ( ( 7 o + + + + + + + + + + + + + + + . .   . } | ( ( ( ( 4 = + + + + + + + + @ p ( ( ( ( ( 2 +   . = 4 ( ( ( ( | } .     + {.S ( ( ( ( d { t .         . 6 7 ( ( ( ( < : + + + + + + + + + + + + + + + .     . . + + + + + + .       ",
"    . @ * 2 2 2 2 2 2 2 2 2 2 2 2 2 2 2 ].( ( ( ( ( _ +   . : < ( ( ( ( a b 2 2 2 2 2 2 2 2 2 2 2 2 2 2 2 c +   . } | ( ( ( ( d [ 2 2 2 2 2 2 2 2 e / ( ( ( ( ( 2 +   . = 4 ( ( ( ( | } .     . u 5 ^.( ( ( ( N  .+         . 6 7 ( ( ( ( j k 2 2 2 2 2 2 2 2 2 2 2 2 2 2 l m .   . /.l 2 2 2 2 * B .     ",
"    . ^ / ( ( ( ( ( ( ( ( ( ( ( ( ( ( ( ( ( ( ( ( ( _ +   . : < ( ( ( ( ( ( ( ( ( ( ( ( ( ( ( ( ( ( ( ( ( [ +   . } | ( ( ( ( ( ( ( ( ( ( ( ( ( ( ( ( ( ( ( ( ( 2 +   . = 4 ( ( ( ( | } .       + - (.1 ( ( ( a b @ .       . 6 7 ( ( ( ( ( ( ( ( ( ( ( ( ( ( ( ( ( ( ( ( 7 8 .   . n 1 ( ( ( ( / ^ .     ",
"    . ^ / ( ( ( ( ( ( ( ( ( ( ( ( ( ( ( ( ( ( ( ( ( _ +   . : < ( ( ( ( ( ( ( ( ( ( ( ( ( ( ( ( ( ( ( ( ( [ +   . } | ( ( ( ( ( ( ( ( ( ( ( ( ( ( ( ( ( ( ( ( ( 2 +   . = 4 ( ( ( ( | } .       . + _.i ( ( ( ( < :.+ .     . 6 7 ( ( ( ( ( ( ( ( ( ( ( ( ( ( ( ( ( ( ( ( 7 8 .   . n 1 ( ( ( ( / ^ .     ",
"    . ^ / ( ( ( ( ( ( ( ( ( ( ( ( ( ( ( ( ( ( ( ( ( _ +   . : < ( ( ( ( ( ( ( ( ( ( ( ( ( ( ( ( ( ( ( ( ( [ +   . } | ( ( ( ( ( ( ( ( ( ( ( ( ( ( ( ( ( ( ( ( ( 2 +   . = 4 ( ( ( ( | } .         . ).<.a ( ( ( 1 (.V +     . 6 7 ( ( ( ( ( ( ( ( ( ( ( ( ( ( ( ( ( ( ( ( 7 8 .   . n 1 ( ( ( ( / ^ .     ",
"    . ^ / ( ( ( ( ( ( ( ( ( ( ( ( ( ( ( ( ( ( ( ( ( _ +   . : < ( ( ( ( ( ( ( ( ( ( ( ( ( ( ( ( ( ( ( ( ( [ +   . } | ( ( ( ( ( ( ( ( ( ( ( ( ( ( ( ( ( ( ( ( ( 2 +   . = 4 ( ( ( ( | } .           + [.}.( ( ( ( X *.u .   . 6 7 ( ( ( ( ( ( ( ( ( ( ( ( ( ( ( ( ( ( ( ( 7 8 .   . n 1 ( ( ( ( / ^ .     ",
"    . ^ / ( ( ( ( ( ( ( ( ( ( ( ( ( ( ( ( ( ( ( ( ( _ +   . : < ( ( ( ( ( ( ( ( ( ( ( ( ( ( ( ( ( ( ( ( ( [ +   . } | ( ( ( ( ( ( ( ( ( ( ( ( ( ( ( ( ( ( ( ( 1 2 +   . 3 4 ( ( ( ( | } .           . t ; f ( ( ( 1 |.: .   . 6 7 ( ( ( ( ( ( ( ( ( ( ( ( ( ( ( ( ( ( ( ( 7 8 .   . n a ( ( ( ( / ^ .     ",
"    . @ # $ $ $ $ $ $ $ $ $ $ $ $ $ $ $ $ $ $ $ $ $ % +   . & * $ $ $ $ $ $ $ $ $ $ $ $ $ $ $ $ $ $ $ $ $ = +   . - ; $ $ $ $ $ $ $ $ $ $ $ $ $ $ $ $ $ $ $ $ $ > +   . , ' $ $ $ $ ; - .             + 1.A $ $ $ $ 2.3..   . ~ { $ $ $ $ $ $ $ $ $ $ $ $ $ $ $ $ $ $ $ $ ) ] .   . 4.) $ $ $ $ # @ .     ",
"      . . . . . . . . . . . . . . . . . . . . . . . + .     . . . . . . . . . . . . . . . . . . . . . . . + .     . . . . . . . . . . . . . . . . . . . . . . . + .     . . . . . . . .                 . . . . . . . .       . . . . . . . . . . . . . . . . . . . . . . . .     . + . . . . . . .       ",
"                                                                                                                                                                                                                                                                                                          ",
"                                                                                                                                                                                                                                                                                                          "};
