/* XPM */
static xpm_string_t spaceship_xpm[] = {
"80 80 14 1",
" 	c None",
".	c #0B0100",
"+	c #040000",
"@	c #780700",
"#	c #C90C00",
"$	c #12179C",
"%	c #4583EB",
"&	c #62D5EE",
"*	c #9C0900",
"=	c #2A0300",
"-	c #1C0200",
";	c #1F0A16",
">	c #5A3A2E",
",	c #0A030D",
"                                                                                ",
"                                                                                ",
"                                    .     +                                     ",
"                                   ..     ++                                    ",
"                                 ..@.     +#++                                  ",
"                                .#.@.     +#.@+                                 ",
"                              ..##...     +..@@++                               ",
"                             .####.@.     +#.@@@@+                              ",
"                            .@####.@.     +#.@@@@@+                             ",
"                            .@####.@.     +#.@@@@@+                             ",
"                            .@####...     +..@@@@@+                             ",
"                            .@####.@.     +#.@@@@@+                             ",
"                            .@####.@.     +#.@@@@@+                             ",
"                            .@####.@.     +#.@@@@@+                             ",
"                            .@####...     +..@@@@@+                             ",
"                            .@####.@.     +#.@@@@@+                             ",
"                            .@####.@.     +#.@@@@@+                             ",
"                            .@####.@.     +#.@@@@@+                             ",
"                            .@####... $$$ +..@@@@@+                             ",
"                            .@####.@.$%%%$+#.@@@@@+                             ",
"                            .@####.@$%%%%%$#.@@@@@+                             ",
"                            .@####..$%&&%%$..@@@@@+                             ",
"                            .@####.@$%&&%%$@.*@@@@+                             ",
"                            .@###.@@$%&&%%$@@.@@@@+                             ",
"                            .@###.@#$%&&%%$@@.*@@@+                             ",
"                            .@##.@#$%&&%%%%$@@.*@@+                             ",
"                            .@##.##$%&&%%%%$@@.**@+                             ",
"                           .#@#.@##$%&&%%%%$@@@.*@*+                            ",
"                          .##@#.###$%&&%%%%$@@@.****+                           ",
"                          .#@@#.###$%&&%%%%$@@@.****+                           ",
"                    =====.#@@@.@#.#$%&&%%%%$@.@@.****+=====                     ",
"              ======@@@@@.#@@@.####$%&&%%%%$@@@@.****++@@@@=======              ",
"          ====@@@@@@@@@@.#@@@.#####$%&&%%%%$@@@@@.****+@@@@@@@@@@@====          ",
"         =@@@@@@@@@@@@@@.#@@@.##.##$%&&%%%%$@@.@@.****+@@@@@@@@@@@@@@@=         ",
"        =@@@@@@@@@@@@@@.#@@@@.#####$%&&%%%%$@@@@@.*****+@@@@@@@@@@@@@@@=        ",
"        =@@@@@@@@@@@@@.##@@@@.#####$%&&%%%%$@@@@@.******+@@@@@@@@@@@@@@=        ",
"       =@@@@@@@@@@@@--.#@@@@@.##.###$%&&%%$@@@.@@.******+--@@@@@@@@@@@@@=       ",
"      =@@@@@@@@@-----.#@@@@@@.##.###$%&&%%$@@@.@@.*******+------@@@@@@@@@=      ",
"      =----------###=.#@@@@@@.##.###$%&&%%$@@@.@@.*******+=-###----------=      ",
"     =##-###-###-###.#@@@@@@..######$%%%%%$@@@@@@..*******+-###-###-###-##=     ",
"    ================.#@@@@@@..#######$%%%$@@@@@@@..*******+=================    ",
"                   .#@..@@@...########$%$@@@@@@@@...***..**+                    ",
"                 ..#@.@@.@@...###..###$%$@@@..@@@...**.**.**++                  ",
"                .##@@.@@.@.#..##.##.###$@@@.@@.@@..@.*.**.****+                 ",
"             ...##@@@@..@..#..##.##.###$@@@.@@.@@..@..*..******+++              ",
"            .###@@@@@@@@.@.#.#.##..######@@@..@@.@.@.*.***********+             ",
"         ...#@@@@@@@@@..@@.#.#.#######...@@@@@@@.@.@.**..**********+++          ",
"        .##@@@@@@@@@..@@@@.#.#.########@@@@@@@@@.@.@.****..***********+         ",
"     ...#@@@@@@@@@..#.@@@@.#.#..##.######@@@.@@..@.@.****.@..**********+++      ",
"    .##@@@@@@@@@..#.#.@@@@.#.#..######...@@@@@@..@.@.****.@.@..***********+     ",
"  ..#@@@@@@@@...#.#.#.@@@@.#.#.#.######@@@@@@@.@.@.@.****.@.@.@...*********++   ",
"  .#@@@@@@@@@.#.#.#.#.@@@@.#.#.#.##.#####@@.@@.@.@.@.****.@.@.@.@.**********+   ",
"  .#@@@@@@@@@.#.#.#.#.@@@@.#.#.#.#####...@@@@@.@.@.@.****.@.@.@.@.**********+   ",
"  .#@@@@@@@@@.....................#####@@@@@@.....................**********+   ",
"  .#@@@@@@@@@@@@@@@@@@@@@@@@@@@@@.#######@@@@.******************************+   ",
"  .#@#.@@@@#.@@@@#.@@@@#.@@@@@@@@.##.#...@.@@.*******@.****@.****@.****@.***+   ",
"  .#@#.@#.@#.@#.@#.@#.@#.@@@@@....#####@@@@@@.+++****@.*@.*@.*@.*@.*@.*@.***+   ",
"  ...........................@.;>;.#.##@@@.@.;,,+*+++++++++++++++++++++++++++   ",
"     ,>>;;,,                .@.;>;.#.##@@@.@.;,,+*+                ,>>;;,,      ",
"     ,>>;;,,                 ..;>;.#...@...@.;,,++                 ,>>;;,,      ",
"      ,>;,,                  ..;>;>.;;.@.;;.;;,,++                  ,>;,,       ",
"      ,>;,,                   .,;>,.;;.@.;;.,;,,+                   ,>;,,       ",
"      ,,,,,                    ,;>,>;;;.;;;;,;,,                    ,,,,,       ",
"                               ,;>,>;;;.;;;;,;,,                                ",
"                               ,;>,>;;;.;;;;,;,,                                ",
"                                ,;>;>;;,;;;;;,,                                 ",
"                                ,;>;>;;,;;;;;,,                                 ",
"                                ,;>;>;;;;;;;;,,                                 ",
"                                ,,>;>;;,;;;;,,,                                 ",
"                                  ,,,,,,,,,,,                                   ",
"                                                                                ",
"                                                                                ",
"                                                                                ",
"                                                                                ",
"                                                                                ",
"                                                                                ",
"                                                                                ",
"                                                                                ",
"                                                                                ",
"                                                                                "};
